<?xml version="1.0" encoding="utf-8"?>
<!-- Generator: Adobe Illustrator 27.5.0, SVG Export Plug-In . SVG Version: 6.00 Build 0)  -->
<svg version="1.1" xmlns="http://www.w3.org/2000/svg" xmlns:xlink="http://www.w3.org/1999/xlink" x="0px" y="0px"
	 viewBox="0 0 500 500" style="enable-background:new 0 0 500 500;" xml:space="preserve">
<g id="BACKGROUND">
	<rect style="fill:none;" width="500" height="500"/>
</g>
<g id="OBJECT">
	<polygon style="fill:#F3EAC7;" points="343.655,120.669 343.654,120.669 343.655,120.669 	"/>
	<polygon style="fill:#F3EAC7;" points="202.258,261.068 202.258,261.068 202.258,261.068 	"/>
	<polygon style="fill:#F3EAC7;" points="343.655,261.068 343.654,261.068 343.655,261.068 	"/>
	<polygon style="fill:#F3EAC7;" points="202.258,120.669 202.258,120.669 202.258,120.669 	"/>
	<g>
		<circle style="fill:#70CACD;" cx="250" cy="91.801" r="61.739"/>
		<g>
			<defs>
				<circle id="SVGID_1_" cx="250" cy="91.801" r="61.739"/>
			</defs>
			<clipPath id="SVGID_00000052091928152480159670000003343227942921159597_">
				<use xlink:href="#SVGID_1_"  style="overflow:visible;"/>
			</clipPath>
			<g style="clip-path:url(#SVGID_00000052091928152480159670000003343227942921159597_);">
				<path style="fill:#7DC79B;" d="M250,116.571v45.611h40.751v-22.831c0,0,0-21.247-21.045-22.78H250z"/>
				<path style="fill:#FFFAEF;" d="M262.65,116.571c0,0-2.55,9.342-12.65,12.361v15.573l20.376-27.933H262.65z"/>
				<path style="fill:#5F9B7A;" d="M250,116.571v45.611h-40.751v-22.831c0,0,0-21.247,21.045-22.78H250z"/>
				<path style="fill:#FABF83;" d="M250,79.813v49.118c0,0-8.022,0-12.65-12.361V89.897L250,79.813z"/>
				<path style="fill:#FADBA7;" d="M250,79.813v49.118c0,0,8.022,0,12.65-12.361V89.897L250,79.813z"/>
				<path style="fill:#E67F69;" d="M263.084,98.937c0,0-8.95,14.868-25.734,17.633V98.937H263.084z"/>
				<path style="fill:#FABF83;" d="M250,44.032v62.455c0,0-16.52-8.865-17.326-10.879C231.868,93.593,214.945,46.047,250,44.032z"/>
				<path style="fill:#FADBA7;" d="M250,44.032v62.455c0,0,16.52-8.865,17.326-10.879C268.132,93.593,285.055,46.047,250,44.032z"/>
				<path style="fill:#FABF83;" d="M227.302,75.243c0,0-2.028-4.252-5.241-3.118c-3.213,1.134-1.677,16.496,8.233,15.524
					C230.294,87.649,229.708,79.684,227.302,75.243z"/>
				<path style="fill:#FADBA7;" d="M272.469,75.243c0,0,2.028-4.252,5.241-3.118c3.213,1.134,1.677,16.496-8.233,15.524
					C269.477,87.649,270.063,79.684,272.469,75.243z"/>
				<path style="fill:#D78E1C;" d="M233.442,51.291c0,0,5.431,14.399-5.026,26.584C228.416,77.875,220.3,60.989,233.442,51.291z"/>
				<path style="fill:#D78E1C;" d="M266.43,51.291c0,0-5.431,14.399,5.026,26.584C271.456,77.875,279.572,60.989,266.43,51.291z"/>
				<path style="fill:#E69261;" d="M243.675,90.06h12.65C256.325,90.06,250.362,99.168,243.675,90.06z"/>
				<path style="fill:#E69261;" d="M252.531,87.227h-5.062C247.469,87.227,249.855,83.583,252.531,87.227z"/>
				<path style="fill:#B17713;" d="M245.459,69.109c0,0,0.236,2.343-1.466,2.353c-1.701,0.01-6.246-1.945-9.528-0.01
					C234.465,71.452,236.069,67.559,245.459,69.109z"/>
				<path style="fill:#B17713;" d="M253.873,69.262c0,0-0.02,2.355,1.675,2.209c1.695-0.146,6.042-2.509,9.487-0.882
					C265.035,70.589,263.082,66.859,253.873,69.262z"/>
				<path style="fill:#5F9B7A;" d="M261.037,34.874h-21.455c-7.123,0-12.897,5.774-12.897,12.897v13.088h47.25V47.771
					C273.934,40.648,268.16,34.874,261.037,34.874z"/>
				<path style="fill:#7DC79B;" d="M265.544,34.874h-15.234v25.985h23.625V43.265C273.934,38.631,270.178,34.874,265.544,34.874z"/>
				<path style="fill:#5F9B7A;" d="M250,82.416h-12.65v17.033c0,0,8.232,4.971,12.65,7.038V82.416z"/>
				<path style="fill:#7DC79B;" d="M250,82.416h12.65v17.033c0,0-8.232,4.971-12.65,7.038V82.416z"/>
				<polygon style="fill:#5F9B7A;" points="227.889,76.612 238.064,82.416 238.064,83.899 228.445,78.483 				"/>
				<polygon style="fill:#7DC79B;" points="272.111,76.612 261.936,82.416 261.936,83.899 271.555,78.483 				"/>
				<path style="fill:#F4DAC6;" d="M237.35,116.571c0,0,2.55,9.342,12.65,12.361v15.573l-20.376-27.933H237.35z"/>
			</g>
		</g>
	</g>
	<g>
		<circle style="fill:#EF9E20;" cx="250" cy="393.827" r="61.739"/>
		<g>
			<defs>
				<circle id="SVGID_00000042003318094509730600000016692320865456389296_" cx="250" cy="393.827" r="61.739"/>
			</defs>
			<clipPath id="SVGID_00000085220170985814695660000012772619437899396011_">
				<use xlink:href="#SVGID_00000042003318094509730600000016692320865456389296_"  style="overflow:visible;"/>
			</clipPath>
			<g style="clip-path:url(#SVGID_00000085220170985814695660000012772619437899396011_);">
				<path style="fill:#F2B31B;" d="M250,416.29v45.611h40.751V439.07c0,0,0-21.247-21.045-22.78H250z"/>
				<path style="fill:#F58A28;" d="M250,416.29v45.611h-40.751V439.07c0,0,0-21.247,21.045-22.78H250z"/>
				<path style="fill:#FABF83;" d="M250,379.533v49.118c0,0-8.022,0-12.65-12.361v-26.673L250,379.533z"/>
				<path style="fill:#FADBA7;" d="M250,379.533v49.118c0,0,8.022,0,12.65-12.361v-26.673L250,379.533z"/>
				<path style="fill:#E67F69;" d="M263.084,398.657c0,0-8.95,14.868-25.734,17.633v-17.633H263.084z"/>
				<path style="fill:#FABF83;" d="M250,343.751v62.455c0,0-16.52-8.865-17.326-10.879C231.868,393.312,214.945,345.766,250,343.751
					z"/>
				<path style="fill:#FADBA7;" d="M250,343.751v29.764v32.691c0,0,16.52-8.865,17.326-10.879
					C268.132,393.312,285.055,345.766,250,343.751z"/>
				<path style="fill:#FABF83;" d="M227.302,374.963c0,0-2.028-4.252-5.241-3.118s-1.677,16.496,8.233,15.524
					C230.294,387.369,229.708,379.404,227.302,374.963z"/>
				<path style="fill:#FADBA7;" d="M272.469,374.963c0,0,2.028-4.252,5.241-3.118s1.677,16.496-8.233,15.524
					C269.477,387.369,270.063,379.404,272.469,374.963z"/>
				<path style="fill:#443937;" d="M233.442,351.01c0,0,5.431,14.399-5.026,26.584C228.416,377.594,220.3,360.709,233.442,351.01z"
					/>
				<path style="fill:#6D584F;" d="M266.43,351.01c0,0-5.431,14.399,5.026,26.584C271.456,377.594,279.572,360.709,266.43,351.01z"
					/>
				<path style="fill:#F4EFD7;" d="M243.675,389.779h12.65C256.325,389.779,250.362,398.887,243.675,389.779z"/>
				<path style="fill:#E69261;" d="M252.531,386.947h-5.062C247.469,386.947,249.855,383.302,252.531,386.947z"/>
				<path style="fill:#443937;" d="M245.395,370.745c0,0,0.236,2.343-1.466,2.353c-1.701,0.01-6.246-1.945-9.528-0.01
					C234.401,373.088,236.005,369.195,245.395,370.745z"/>
				<path style="fill:#6D584F;" d="M254.399,370.745c0,0-0.236,2.343,1.466,2.353s6.246-1.945,9.528-0.01
					C265.392,373.088,263.788,369.195,254.399,370.745z"/>
				<path style="fill:#F79527;" d="M249.892,365.577v-6.334h-22.854c0,0,3.634,6.334,7.651,6.334S249.892,365.577,249.892,365.577z"
					/>
				<path style="fill:#EF9E20;" d="M249.892,365.577v-6.334h22.854c0,0-3.634,6.334-7.651,6.334S249.892,365.577,249.892,365.577z"
					/>
				<path style="fill:#F58A28;" d="M249.892,334.562L249.892,334.562l0,24.68h22.855v-2.241
					C272.746,344.608,262.514,334.562,249.892,334.562z"/>
				<path style="fill:#F05A28;" d="M249.931,334.562L249.931,334.562l0,24.68h-22.893v-2.241
					C227.037,344.608,237.287,334.562,249.931,334.562z"/>
				<path style="fill:#F2B31B;" d="M249.993,346.902h-0.281c-0.73,0-1.327-0.597-1.327-1.327v-10.511
					c0-0.73,0.597-1.327,1.327-1.327h0.281c0.73,0,1.327,0.597,1.327,1.327v10.511C251.32,346.305,250.723,346.902,249.993,346.902z
					"/>
				<path style="fill:#F2B31B;" d="M244.128,346.902h-0.281c-0.73,0-1.327-0.597-1.327-1.327v-10.511
					c0-0.73,0.597-1.327,1.327-1.327h0.281c0.73,0,1.327,0.597,1.327,1.327v10.511C245.455,346.305,244.858,346.902,244.128,346.902
					z"/>
				<path style="fill:#F2B31B;" d="M255.77,346.902h-0.281c-0.73,0-1.327-0.597-1.327-1.327v-10.511c0-0.73,0.597-1.327,1.327-1.327
					h0.281c0.73,0,1.327,0.597,1.327,1.327v10.511C257.097,346.305,256.5,346.902,255.77,346.902z"/>
				<path style="fill:#616364;" d="M232.311,416.29v15.126L250,450.663v-22.013c0,0-8.844-0.966-12.65-12.361H232.311z"/>
				<path style="fill:#6E7C7D;" d="M267.689,416.29v15.126L250,450.663v-22.013c0,0,8.844-0.966,12.65-12.361H267.689z"/>
				<path style="fill:#616364;" d="M213.731,425.065v36.836h-4.482V439.07C209.249,439.07,209.868,429.22,213.731,425.065z"/>
				<path style="fill:#6E7C7D;" d="M286.269,425.065v36.836h4.482V439.07C290.751,439.07,290.132,429.22,286.269,425.065z"/>
				<path style="fill:#F3BE61;" d="M224.811,417.238v44.663h-4.209v-42.973C220.601,418.928,222.819,417.717,224.811,417.238z"/>
				<path style="fill:#F3BE61;" d="M275.202,417.238v44.663h4.209v-42.973C279.411,418.928,277.193,417.717,275.202,417.238z"/>
				<path style="fill:#443937;" d="M250,391.936h-10.097c0,0,1.815-4.313,10.097-4.313V391.936z"/>
				<path style="fill:#6D584F;" d="M250,391.936h10.097c0,0-1.815-4.313-10.097-4.313V391.936z"/>
			</g>
		</g>
	</g>
	<g>
		<circle style="fill:#F79527;" cx="402.124" cy="91.801" r="61.739"/>
		<g>
			<defs>
				<circle id="SVGID_00000065764352463763554090000017286876190441559481_" cx="402.124" cy="91.801" r="61.739"/>
			</defs>
			<clipPath id="SVGID_00000124162253056316574340000009737032737185314472_">
				<use xlink:href="#SVGID_00000065764352463763554090000017286876190441559481_"  style="overflow:visible;"/>
			</clipPath>
			<g style="clip-path:url(#SVGID_00000124162253056316574340000009737032737185314472_);">
				<path style="fill:#FFFAEF;" d="M402.124,116.571v45.611h40.751v-22.831c0,0,0-21.247-21.045-22.78H402.124z"/>
				<path style="fill:#F4DAC6;" d="M402.124,116.571v45.611h-40.751v-22.831c0,0,0-21.247,21.045-22.78H402.124z"/>
				<path style="fill:#FADBA7;" d="M402.124,79.813v49.118c0,0-8.022,0-12.65-12.361V89.897L402.124,79.813z"/>
				<path style="fill:#FADBA7;" d="M402.124,79.813v49.118c0,0,8.022,0,12.65-12.361V89.897L402.124,79.813z"/>
				<path style="fill:#E67F69;" d="M415.208,98.937c0,0-8.95,14.868-25.734,17.633V98.937H415.208z"/>
				<path style="fill:#FABF83;" d="M402.124,44.032v62.455c0,0-16.52-8.865-17.326-10.879
					C383.992,93.593,367.069,46.047,402.124,44.032z"/>
				<path style="fill:#FADBA7;" d="M402.124,44.032v62.455c0,0,16.52-8.865,17.326-10.879
					C420.256,93.593,437.179,46.047,402.124,44.032z"/>
				<path style="fill:#FABF83;" d="M379.426,75.243c0,0-2.028-4.252-5.241-3.118c-3.213,1.134-1.677,16.496,8.233,15.524
					C382.418,87.649,381.832,79.684,379.426,75.243z"/>
				<path style="fill:#FADBA7;" d="M424.593,75.243c0,0,2.028-4.252,5.241-3.118c3.213,1.134,1.677,16.496-8.233,15.524
					C421.601,87.649,422.187,79.684,424.593,75.243z"/>
				<path style="fill:#E69261;" d="M404.655,87.227h-5.062C399.593,87.227,401.979,83.583,404.655,87.227z"/>
				<path style="fill:#720E1A;" d="M397.518,69.109c0,0,0.236,2.343-1.466,2.353c-1.701,0.01-6.246-1.945-9.528-0.01
					C386.525,71.452,388.129,67.559,397.518,69.109z"/>
				<path style="fill:#720E1A;" d="M406.522,69.109c0,0-0.236,2.343,1.466,2.353c1.701,0.01,6.246-1.945,9.528-0.01
					C417.516,71.452,415.912,67.559,406.522,69.109z"/>
				<rect x="389.257" y="111.8" style="fill:#F4DAC6;" width="12.867" height="24.613"/>
				<rect x="402.124" y="111.8" style="fill:#FFFAEF;" width="12.867" height="24.613"/>
				<path style="fill:#720E1A;" d="M393.845,51.291c0,0-5.461,14.692-13.832,25.185c0,0-5.554-13.047,0-25.185H393.845z"/>
				<path style="fill:#720E1A;" d="M410.403,51.291c0,0,5.461,14.692,13.832,25.185c0,0,5.554-13.047,0-25.185H410.403z"/>
				<circle style="fill:#F79527;" cx="410.975" cy="128.682" r="2.527"/>
				<circle style="fill:#F79527;" cx="410.975" cy="139.376" r="2.527"/>
				<circle style="fill:#F79527;" cx="410.975" cy="151.013" r="2.527"/>
				<circle style="fill:#F79527;" cx="391.068" cy="128.682" r="2.527"/>
				<circle style="fill:#F79527;" cx="391.068" cy="139.376" r="2.527"/>
				<circle style="fill:#F79527;" cx="391.068" cy="151.013" r="2.527"/>
				<path style="fill:#C12B27;" d="M393.289,88.974h17.669C410.958,88.974,402.629,103.026,393.289,88.974z"/>
				<path style="fill:#FFFAEF;" d="M395.799,90.06h12.65C408.449,90.06,402.486,99.168,395.799,90.06z"/>
			</g>
		</g>
		<g>
			<rect x="380.012" y="37.201" style="fill:#F0DDB2;" width="22.111" height="14.09"/>
			<rect x="402.124" y="37.201" style="fill:#FFFAEF;" width="22.111" height="14.09"/>
			<circle style="fill:#F0DDB2;" cx="392.489" cy="30.551" r="12.45"/>
			<circle style="fill:#FFFAEF;" cx="409.912" cy="27.138" r="13.703"/>
			<circle style="fill:#FFFAEF;" cx="422.984" cy="35.383" r="9.778"/>
			<circle style="fill:#F0DDB2;" cx="380.012" cy="35.383" r="9.778"/>
		</g>
	</g>
	<g>
		<circle style="fill:#AD1E4F;" cx="97.876" cy="91.801" r="61.739"/>
		<g>
			<defs>
				<circle id="SVGID_00000024715214469092261640000015957176840056819845_" cx="97.876" cy="91.801" r="61.739"/>
			</defs>
			<clipPath id="SVGID_00000020375099294029912670000005453531377919847853_">
				<use xlink:href="#SVGID_00000024715214469092261640000015957176840056819845_"  style="overflow:visible;"/>
			</clipPath>
			<g style="clip-path:url(#SVGID_00000020375099294029912670000005453531377919847853_);">
				<path style="fill:#EFE6D4;" d="M97.876,116.571v45.611h40.751v-22.831c0,0,0-21.247-21.045-22.78H97.876z"/>
				<path style="fill:#70CACD;" d="M110.526,116.571c0,0-2.55,9.342-12.65,12.361v33.25h15.148l5.227-45.611H110.526z"/>
				<path style="fill:#FFFAEF;" d="M118.252,116.571l-5.227,45.611l10.953-10.155l-6.668-9.108l9.134-24.127
					C126.443,118.791,123.911,117.546,118.252,116.571z"/>
				<path style="fill:#EFE6D4;" d="M97.876,116.571v45.611H57.125v-22.831c0,0,0-21.247,21.045-22.78H97.876z"/>
				<path style="fill:#FABF83;" d="M97.876,79.813v49.118c0,0-8.022,0-12.65-12.361V89.897L97.876,79.813z"/>
				<path style="fill:#FADBA7;" d="M97.876,79.813v49.118c0,0,8.022,0,12.65-12.361V89.897L97.876,79.813z"/>
				<path style="fill:#E67F69;" d="M110.961,98.937c0,0-8.95,14.868-25.734,17.633V98.937H110.961z"/>
				<path style="fill:#FABF83;" d="M97.876,44.032v62.455c0,0-16.52-8.865-17.326-10.879C79.744,93.593,62.821,46.047,97.876,44.032
					z"/>
				<path style="fill:#FADBA7;" d="M97.876,44.032v62.455c0,0,16.52-8.865,17.326-10.879
					C116.008,93.593,132.931,46.047,97.876,44.032z"/>
				<path style="fill:#FABF83;" d="M75.178,75.243c0,0-2.028-4.252-5.241-3.118c-3.213,1.134-1.677,16.496,8.233,15.524
					C78.17,87.649,77.584,79.684,75.178,75.243z"/>
				<path style="fill:#FADBA7;" d="M120.345,75.243c0,0,2.028-4.252,5.241-3.118c3.213,1.134,1.677,16.496-8.233,15.524
					C117.353,87.649,117.939,79.684,120.345,75.243z"/>
				<path style="fill:#D78E1C;" d="M81.318,51.291c0,0,5.431,14.399-5.026,26.584C76.292,77.875,68.176,60.989,81.318,51.291z"/>
				<path style="fill:#D78E1C;" d="M114.306,51.291c0,0-5.431,14.399,5.026,26.584C119.332,77.875,127.448,60.989,114.306,51.291z"
					/>
				<path style="fill:#F4EFD7;" d="M91.551,90.06h12.65C104.201,90.06,98.238,99.168,91.551,90.06z"/>
				<path style="fill:#E69261;" d="M100.407,87.227h-5.062C95.345,87.227,97.731,83.583,100.407,87.227z"/>
				<path style="fill:#B17713;" d="M93.335,69.109c0,0,0.236,2.343-1.466,2.353s-6.246-1.945-9.528-0.01
					C82.341,71.452,83.945,67.559,93.335,69.109z"/>
				<path style="fill:#B17713;" d="M101.75,69.262c0,0-0.02,2.355,1.675,2.209c1.695-0.146,6.042-2.509,9.487-0.882
					C112.911,70.589,110.958,66.859,101.75,69.262z"/>
				<path style="fill:#70CACD;" d="M85.227,116.571c0,0,2.55,9.342,12.65,12.361v33.25H82.728l-5.227-45.611H85.227z"/>
				<polygon style="fill:#01424F;" points="97.876,128.931 97.876,162.181 86.585,162.181 95.477,139.376 91.551,134.002 				"/>
				<polygon style="fill:#175C6C;" points="97.876,128.931 97.876,162.181 109.167,162.181 100.276,139.376 104.201,134.002 				"/>
				<polygon style="fill:#98D5CC;" points="85.227,111.768 97.876,129.171 89.517,135.844 78.17,116.81 				"/>
				<polygon style="fill:#ACDBCF;" points="110.526,111.768 97.876,129.171 106.236,135.844 117.582,116.81 				"/>
				<path style="fill:#FFFAEF;" d="M77.501,116.571l5.227,45.611l-10.953-10.155l6.668-9.108l-9.134-24.127
					C69.309,118.791,71.841,117.546,77.501,116.571z"/>
				<path style="fill:#D78E1C;" d="M79.962,52.815c0,0,7.727-3.903,20.221-3.47c12.075,0.419,18.069,5.817,18.069,5.817
					s7.5-18.461-7.291-20.287c-12.845-1.586-10.147,9.266-18.73,7.315C83.648,40.237,77.202,44.79,79.962,52.815z"/>
			</g>
		</g>
	</g>
	<g>
		<circle style="fill:#969436;" cx="250" cy="243.384" r="61.739"/>
		<g>
			<defs>
				<circle id="SVGID_00000150083731692984695020000006304624765881268921_" cx="250" cy="243.384" r="61.739"/>
			</defs>
			<clipPath id="SVGID_00000160184496222835797270000002931894878926125201_">
				<use xlink:href="#SVGID_00000150083731692984695020000006304624765881268921_"  style="overflow:visible;"/>
			</clipPath>
			<g style="clip-path:url(#SVGID_00000160184496222835797270000002931894878926125201_);">
				<path style="fill:#175C6C;" d="M250,268.154v45.611h40.751v-22.831c0,0,0-21.247-21.045-22.78H250z"/>
				<path style="fill:#01424F;" d="M250,268.154v45.611h-40.751v-22.831c0,0,0-21.247,21.045-22.78H250z"/>
				<path style="fill:#FABF83;" d="M250,231.397v49.118c0,0-8.022,0-12.65-12.361v-26.673L250,231.397z"/>
				<path style="fill:#FADBA7;" d="M250,231.397v49.118c0,0,8.022,0,12.65-12.361v-26.673L250,231.397z"/>
				<path style="fill:#E67F69;" d="M263.084,250.521c0,0-8.95,14.868-25.734,17.633v-17.633H263.084z"/>
				<path style="fill:#FABF83;" d="M250,195.615v62.455c0,0-16.52-8.865-17.326-10.879C231.868,245.176,214.945,197.63,250,195.615z
					"/>
				<path style="fill:#FADBA7;" d="M250,195.615v29.764v32.691c0,0,16.52-8.865,17.326-10.879
					C268.132,245.176,285.055,197.63,250,195.615z"/>
				<path style="fill:#FABF83;" d="M227.302,226.827c0,0-2.028-4.252-5.241-3.118c-3.213,1.134-1.677,16.496,8.233,15.524
					C230.294,239.233,229.708,231.268,227.302,226.827z"/>
				<path style="fill:#FADBA7;" d="M272.469,226.827c0,0,2.028-4.252,5.241-3.118c3.213,1.134,1.677,16.496-8.233,15.524
					C269.477,239.233,270.063,231.268,272.469,226.827z"/>
				<path style="fill:#8E7546;" d="M233.442,202.874c0,0,5.431,14.399-5.026,26.584C228.416,229.458,220.3,212.573,233.442,202.874z
					"/>
				<path style="fill:#B8955B;" d="M266.43,202.874c0,0-5.431,14.399,5.026,26.584C271.456,229.458,279.572,212.573,266.43,202.874z
					"/>
				<path style="fill:#E69261;" d="M252.531,238.811h-5.062C247.469,238.811,249.855,235.166,252.531,238.811z"/>
				<path style="fill:#01424F;" d="M250.217,219.124v-6.669h-24.062c0,0,3.826,6.669,8.055,6.669S250.217,219.124,250.217,219.124z"
					/>
				<path style="fill:#175C6C;" d="M250.217,219.124v-6.669h24.062c0,0-3.826,6.669-8.055,6.669
					C261.996,219.124,250.217,219.124,250.217,219.124z"/>
				<path style="fill:#D0C4B3;" d="M250.217,212.455v-27.907c0,0-15.148-1.043-25.278,10.45
					c-9.301,10.553,1.216,17.457,1.216,17.457H250.217z"/>
				<path style="fill:#F4EFD7;" d="M250.217,212.455v-27.907c0,0,15.148-1.043,25.278,10.45c9.301,10.553-1.216,17.457-1.216,17.457
					H250.217z"/>
				<path style="fill:#EF9E20;" d="M226.155,212.455h24.062v-7.138C250.217,205.317,237.568,205.609,226.155,212.455z"/>
				<path style="fill:#616364;" d="M227.317,212.455h22.901v-6.162C250.217,206.293,238.179,206.545,227.317,212.455z"/>
				<path style="fill:#EF9E20;" d="M274.28,212.455h-24.062v-7.138C250.217,205.317,262.867,205.609,274.28,212.455z"/>
				<path style="fill:#6E7C7D;" d="M273.118,212.455h-22.901v-6.162C250.217,206.293,262.256,206.545,273.118,212.455z"/>
				<polygon style="fill:#D0C4B3;" points="250,313.765 250,280.515 237.35,268.154 230.294,268.154 				"/>
				<polygon style="fill:#F4EFD7;" points="237.35,263.112 250,280.515 241.64,287.188 230.294,268.154 				"/>
				<polygon style="fill:#01424F;" points="250,280.515 250,313.765 238.709,313.765 247.6,290.959 243.675,285.586 				"/>
				<polygon style="fill:#D0C4B3;" points="250,313.765 250,280.515 262.65,268.154 269.706,268.154 				"/>
				<polygon style="fill:#F4EFD7;" points="262.65,263.112 250,280.515 258.36,287.188 269.706,268.154 				"/>
				<path style="fill:#8E7546;" d="M245.395,222.609c0,0,0.236,2.343-1.466,2.353c-1.701,0.01-6.246-1.945-9.528-0.01
					C234.401,224.952,236.005,221.059,245.395,222.609z"/>
				<path style="fill:#B8955B;" d="M254.399,222.609c0,0-0.236,2.343,1.466,2.353c1.701,0.01,6.246-1.945,9.528-0.01
					C265.392,224.952,263.788,221.059,254.399,222.609z"/>
				<polygon style="fill:#175C6C;" points="250,280.515 250,313.765 261.291,313.765 252.4,290.959 256.325,285.586 				"/>
				<path style="fill:#8E7546;" d="M250,258.593v-18.758c0,0-8.869-1.528-14.58,9.754L250,258.593z"/>
				<path style="fill:#B8955B;" d="M250,258.593v-18.758c0,0,8.869-1.528,14.58,9.754L250,258.593z"/>
				<path style="fill:#8E7546;" d="M227.617,227.454c0,0,3.521,17.721,4.748,20.182S250,259.337,250,259.337v-4.213
					c0,0-13.075-5.802-15.148-8.559c-2.391-3.18-5.079-19.722-5.079-19.722L227.617,227.454z"/>
				<path style="fill:#B8955B;" d="M272.383,227.454c0,0-3.521,17.721-4.748,20.182C266.408,250.098,250,259.337,250,259.337v-4.213
					c0,0,13.075-5.802,15.148-8.559c2.391-3.18,5.079-19.722,5.079-19.722L272.383,227.454z"/>
				<path style="fill:#F4EFD7;" d="M243.675,241.643h12.65C256.325,241.643,250.362,250.751,243.675,241.643z"/>
				<g>
					<g>
						<path style="fill:#EF9E20;" d="M248.174,197.11h-11.406c-0.411,0-0.747-0.336-0.747-0.747v-0.236
							c0-0.411,0.336-0.747,0.747-0.747h11.406c0.411,0,0.747,0.336,0.747,0.747v0.236
							C248.921,196.774,248.585,197.11,248.174,197.11z"/>
						<path style="fill:#EF9E20;" d="M248.224,198.84h-9.918c-0.411,0-0.747-0.336-0.747-0.747v-0.236
							c0-0.411,0.336-0.747,0.747-0.747h9.918c0.411,0,0.747,0.336,0.747,0.747v0.236C248.97,198.504,248.634,198.84,248.224,198.84
							z"/>
						<path style="fill:#EF9E20;" d="M248.224,200.569h-7.209c-0.411,0-0.747-0.336-0.747-0.747v-0.236
							c0-0.411,0.336-0.747,0.747-0.747h7.209c0.411,0,0.747,0.336,0.747,0.747v0.236
							C248.97,200.233,248.634,200.569,248.224,200.569z"/>
						<path style="fill:#EF9E20;" d="M251.972,197.11h11.406c0.411,0,0.747-0.336,0.747-0.747v-0.236
							c0-0.411-0.336-0.747-0.747-0.747h-11.406c-0.411,0-0.747,0.336-0.747,0.747v0.236
							C251.225,196.774,251.561,197.11,251.972,197.11z"/>
						<path style="fill:#EF9E20;" d="M251.922,198.84h9.918c0.411,0,0.747-0.336,0.747-0.747v-0.236
							c0-0.411-0.336-0.747-0.747-0.747h-9.918c-0.411,0-0.747,0.336-0.747,0.747v0.236
							C251.176,198.504,251.512,198.84,251.922,198.84z"/>
						<path style="fill:#EF9E20;" d="M251.922,200.569h7.209c0.411,0,0.747-0.336,0.747-0.747v-0.236
							c0-0.411-0.336-0.747-0.747-0.747h-7.209c-0.411,0-0.747,0.336-0.747,0.747v0.236
							C251.176,200.233,251.512,200.569,251.922,200.569z"/>
					</g>
					<circle style="fill:#F3BE61;" cx="250.352" cy="198.084" r="3.377"/>
				</g>
				<g>
					<g>
						<path style="fill:#EF9E20;" d="M269.154,289.388h-7.163c-0.272,0-0.494-0.222-0.494-0.494v-0.105
							c0-0.272,0.222-0.494,0.494-0.494h7.163c0.272,0,0.494,0.222,0.494,0.494v0.105
							C269.648,289.166,269.425,289.388,269.154,289.388z"/>
						<path style="fill:#EF9E20;" d="M269.185,290.481h-6.223c-0.272,0-0.494-0.222-0.494-0.494v-0.105
							c0-0.272,0.222-0.494,0.494-0.494h6.223c0.272,0,0.494,0.222,0.494,0.494v0.105
							C269.679,290.259,269.456,290.481,269.185,290.481z"/>
						<path style="fill:#EF9E20;" d="M269.185,291.574h-4.511c-0.272,0-0.494-0.222-0.494-0.494v-0.105
							c0-0.272,0.222-0.494,0.494-0.494h4.511c0.272,0,0.494,0.222,0.494,0.494v0.105
							C269.679,291.351,269.456,291.574,269.185,291.574z"/>
						<path style="fill:#EF9E20;" d="M271.598,289.388h7.163c0.272,0,0.494-0.222,0.494-0.494v-0.105
							c0-0.272-0.222-0.494-0.494-0.494h-7.163c-0.272,0-0.494,0.222-0.494,0.494v0.105
							C271.104,289.166,271.326,289.388,271.598,289.388z"/>
						<path style="fill:#EF9E20;" d="M271.566,290.481h6.223c0.272,0,0.494-0.222,0.494-0.494v-0.105
							c0-0.272-0.222-0.494-0.494-0.494h-6.223c-0.272,0-0.494,0.222-0.494,0.494v0.105
							C271.073,290.259,271.295,290.481,271.566,290.481z"/>
						<path style="fill:#EF9E20;" d="M271.566,291.574h4.511c0.272,0,0.494-0.222,0.494-0.494v-0.105
							c0-0.272-0.222-0.494-0.494-0.494h-4.511c-0.272,0-0.494,0.222-0.494,0.494v0.105
							C271.073,291.351,271.295,291.574,271.566,291.574z"/>
					</g>
					<circle style="fill:#F3BE61;" cx="270.552" cy="290.003" r="2.134"/>
				</g>
				<path style="fill:#EF9E20;" d="M219.275,284.083l0.528-0.297c0.48-0.269,0.652-0.882,0.382-1.362l-4.654-8.288
					c-0.672,0.667-1.273,1.368-1.818,2.085l4.2,7.479C218.182,284.18,218.795,284.352,219.275,284.083z"/>
				<path style="fill:#EF9E20;" d="M223.157,281.902l0.528-0.297c0.48-0.27,0.652-0.882,0.382-1.362l-4.986-8.88
					c-0.769,0.47-1.48,0.977-2.139,1.515l4.853,8.641C222.064,282,222.678,282.172,223.157,281.902z"/>
				<path style="fill:#EF9E20;" d="M226.851,279.828l0.528-0.297c0.48-0.27,0.652-0.882,0.382-1.362l-4.847-8.631
					c-0.856,0.304-1.652,0.656-2.407,1.036l4.981,8.871C225.758,279.926,226.371,280.098,226.851,279.828z"/>
				<path style="fill:#EF9E20;" d="M280.449,284.083l-0.528-0.297c-0.48-0.269-0.652-0.882-0.382-1.362l4.654-8.288
					c0.672,0.667,1.273,1.368,1.818,2.085l-4.2,7.479C281.542,284.18,280.928,284.352,280.449,284.083z"/>
				<path style="fill:#EF9E20;" d="M276.566,281.902l-0.528-0.297c-0.48-0.27-0.652-0.882-0.382-1.362l4.986-8.88
					c0.769,0.47,1.48,0.977,2.139,1.515l-4.853,8.641C277.659,282,277.046,282.172,276.566,281.902z"/>
				<path style="fill:#EF9E20;" d="M272.873,279.828l-0.528-0.297c-0.48-0.27-0.652-0.882-0.382-1.362l4.847-8.631
					c0.856,0.304,1.652,0.656,2.407,1.036l-4.981,8.871C273.965,279.926,273.353,280.098,272.873,279.828z"/>
			</g>
		</g>
	</g>
	<g>
		<circle style="fill:#D2373A;" cx="402.124" cy="243.384" r="61.739"/>
		<g>
			<defs>
				<circle id="SVGID_00000156578160020132416860000006182809560368435111_" cx="402.124" cy="243.384" r="61.739"/>
			</defs>
			<clipPath id="SVGID_00000116200421173995034730000013427034202442522014_">
				<use xlink:href="#SVGID_00000156578160020132416860000006182809560368435111_"  style="overflow:visible;"/>
			</clipPath>
			<g style="clip-path:url(#SVGID_00000116200421173995034730000013427034202442522014_);">
				<path style="fill:#175C6C;" d="M402.124,268.154v45.611h40.751v-22.831c0,0,0-21.247-21.045-22.78H402.124z"/>
				<path style="fill:#01424F;" d="M402.124,268.154v45.611h-40.751v-22.831c0,0,0-21.247,21.045-22.78H402.124z"/>
				<path style="fill:#FABF83;" d="M402.124,231.397v49.118c0,0-8.022,0-12.65-12.361v-26.673L402.124,231.397z"/>
				<path style="fill:#FADBA7;" d="M402.124,231.397v49.118c0,0,8.022,0,12.65-12.361v-26.673L402.124,231.397z"/>
				<path style="fill:#E67F69;" d="M415.208,250.521c0,0-8.95,14.868-25.734,17.633v-17.633H415.208z"/>
				<path style="fill:#FABF83;" d="M402.124,195.615v62.455c0,0-16.52-8.865-17.326-10.879
					C383.992,245.176,367.069,197.63,402.124,195.615z"/>
				<path style="fill:#FADBA7;" d="M402.124,195.615v29.764v32.691c0,0,16.52-8.865,17.326-10.879
					C420.256,245.176,437.179,197.63,402.124,195.615z"/>
				<path style="fill:#FABF83;" d="M379.426,226.827c0,0-2.028-4.252-5.241-3.118c-3.213,1.134-1.677,16.496,8.233,15.524
					C382.418,239.233,381.832,231.268,379.426,226.827z"/>
				<path style="fill:#FADBA7;" d="M424.593,226.827c0,0,2.028-4.252,5.241-3.118c3.213,1.134,1.677,16.496-8.233,15.524
					C421.601,239.233,422.187,231.268,424.593,226.827z"/>
				<path style="fill:#B8955B;" d="M385.566,202.874c0,0,5.431,14.399-5.026,26.584C380.54,229.458,372.423,212.573,385.566,202.874
					z"/>
				<path style="fill:#B8955B;" d="M418.553,202.874c0,0-5.431,14.399,5.026,26.584C423.58,229.458,431.696,212.573,418.553,202.874
					z"/>
				<path style="fill:#C12B27;" d="M393.289,240.761h17.669C410.958,240.761,402.629,254.376,393.289,240.761z"/>
				<path style="fill:#E69261;" d="M404.655,238.811h-5.062C399.593,238.811,401.979,235.166,404.655,238.811z"/>
				<polygon style="fill:#D0C4B3;" points="402.124,313.765 402.124,280.515 389.474,268.154 382.418,268.154 				"/>
				<polygon style="fill:#F4EFD7;" points="389.474,263.112 402.124,280.515 381.748,285.286 382.418,268.154 				"/>
				<polygon style="fill:#D0C4B3;" points="402.124,313.765 402.124,280.515 414.773,268.154 421.83,268.154 				"/>
				<path style="fill:#8E7546;" d="M397.518,222.609c0,0,0.236,2.343-1.466,2.353c-1.701,0.01-6.246-1.945-9.528-0.01
					C386.525,224.952,388.129,221.059,397.518,222.609z"/>
				<path style="fill:#8E7546;" d="M406.522,222.609c0,0-0.236,2.343,1.466,2.353c1.701,0.01,6.246-1.945,9.528-0.01
					C417.516,224.952,415.912,221.059,406.522,222.609z"/>
				<polygon style="fill:#F4EFD7;" points="414.991,263.112 402.341,280.515 422.717,285.286 422.047,268.154 				"/>
				<path style="fill:#B32D2F;" d="M402.015,280.515v7.854c0,0,0.296,12.932-12.76,14.488c0,0-0.001-13.642,11.633-14.451
					c0,0-3.54-2.385-4.983-6.438L402.015,280.515z"/>
				<path style="fill:#D2373A;" d="M402.016,280.515v7.854c0,0-0.296,12.932,12.76,14.488c0,0,0.001-13.642-11.633-14.451
					c0,0,3.54-2.385,4.983-6.438L402.016,280.515z"/>
				<path style="fill:#F4EFD7;" d="M395.799,241.643h12.65C408.449,241.643,402.486,250.751,395.799,241.643z"/>
				<path style="fill:#B8955B;" d="M385.566,202.874c0,0,4.001,18.45,39.889,20.729c0,0,5.308-25.711-23.331-27.988
					C402.124,195.615,391.437,195.749,385.566,202.874z"/>
				<polygon style="fill:#01424F;" points="402.341,215.789 402.341,187.158 386.976,197.952 				"/>
				<polygon style="fill:#175C6C;" points="385.566,196.883 402.341,208.301 402.341,215.789 384.002,202.874 				"/>
				<polygon style="fill:#175C6C;" points="402.341,215.789 402.341,187.158 417.707,197.952 				"/>
				<polygon style="fill:#24788B;" points="419.116,196.883 402.341,208.301 402.341,215.789 420.68,202.874 				"/>
				<g>
					<g>
						<path style="fill:#EF9E20;" d="M400.794,197.421h-7.163c-0.272,0-0.494-0.222-0.494-0.494v-0.105
							c0-0.272,0.222-0.494,0.494-0.494h7.163c0.272,0,0.494,0.222,0.494,0.494v0.105
							C401.288,197.198,401.065,197.421,400.794,197.421z"/>
						<path style="fill:#EF9E20;" d="M400.825,198.514h-6.223c-0.272,0-0.494-0.222-0.494-0.494v-0.105
							c0-0.272,0.222-0.494,0.494-0.494h6.223c0.272,0,0.494,0.222,0.494,0.494v0.105
							C401.319,198.291,401.097,198.514,400.825,198.514z"/>
						<path style="fill:#EF9E20;" d="M400.825,199.606h-4.511c-0.272,0-0.494-0.222-0.494-0.494v-0.105
							c0-0.272,0.222-0.494,0.494-0.494h4.511c0.272,0,0.494,0.222,0.494,0.494v0.105
							C401.319,199.384,401.097,199.606,400.825,199.606z"/>
						<path style="fill:#EF9E20;" d="M403.238,197.421h7.163c0.272,0,0.494-0.222,0.494-0.494v-0.105
							c0-0.272-0.222-0.494-0.494-0.494h-7.163c-0.272,0-0.494,0.222-0.494,0.494v0.105
							C402.744,197.198,402.966,197.421,403.238,197.421z"/>
						<path style="fill:#EF9E20;" d="M403.207,198.514h6.223c0.272,0,0.494-0.222,0.494-0.494v-0.105
							c0-0.272-0.222-0.494-0.494-0.494h-6.223c-0.272,0-0.494,0.222-0.494,0.494v0.105
							C402.713,198.291,402.935,198.514,403.207,198.514z"/>
						<path style="fill:#EF9E20;" d="M403.207,199.606h4.511c0.272,0,0.494-0.222,0.494-0.494v-0.105
							c0-0.272-0.222-0.494-0.494-0.494h-4.511c-0.272,0-0.494,0.222-0.494,0.494v0.105
							C402.713,199.384,402.935,199.606,403.207,199.606z"/>
					</g>
					<circle style="fill:#F3BE61;" cx="402.192" cy="198.036" r="2.134"/>
				</g>
			</g>
		</g>
	</g>
	<g>
		<circle style="fill:#F79527;" cx="97.876" cy="243.384" r="61.739"/>
		<g>
			<defs>
				<circle id="SVGID_00000084497362618290940290000007410997040948773288_" cx="97.876" cy="243.384" r="61.739"/>
			</defs>
			<clipPath id="SVGID_00000181077412295099682330000004306020864809983147_">
				<use xlink:href="#SVGID_00000084497362618290940290000007410997040948773288_"  style="overflow:visible;"/>
			</clipPath>
			<g style="clip-path:url(#SVGID_00000181077412295099682330000004306020864809983147_);">
				<path style="fill:#544744;" d="M97.876,268.154v45.611h40.751v-22.831c0,0,0-21.247-21.045-22.78H97.876z"/>
				<path style="fill:#342A28;" d="M97.876,268.154v45.611H57.125v-22.831c0,0,0-21.247,21.045-22.78H97.876z"/>
				<path style="fill:#FABF83;" d="M97.876,231.397v49.118c0,0-8.022,0-12.65-12.361v-26.673L97.876,231.397z"/>
				<path style="fill:#FADBA7;" d="M97.876,231.397v49.118c0,0,8.022,0,12.65-12.361v-26.673L97.876,231.397z"/>
				<path style="fill:#E67F69;" d="M110.961,250.521c0,0-8.95,14.868-25.734,17.633v-17.633H110.961z"/>
				<path style="fill:#FABF83;" d="M97.876,195.615v62.455c0,0-16.52-8.865-17.326-10.879
					C79.744,245.176,62.821,197.63,97.876,195.615z"/>
				<path style="fill:#FADBA7;" d="M97.876,195.615v29.764v32.691c0,0,16.52-8.865,17.326-10.879
					C116.008,245.176,132.931,197.63,97.876,195.615z"/>
				<path style="fill:#FABF83;" d="M75.178,226.827c0,0-2.028-4.252-5.241-3.118c-3.213,1.134-1.677,16.496,8.233,15.524
					C78.17,239.233,77.584,231.268,75.178,226.827z"/>
				<path style="fill:#FADBA7;" d="M120.345,226.827c0,0,2.028-4.252,5.241-3.118c3.213,1.134,1.677,16.496-8.233,15.524
					C117.353,239.233,117.939,231.268,120.345,226.827z"/>
				<path style="fill:#551118;" d="M81.318,202.874c0,0,5.431,14.399-5.026,26.584C76.292,229.458,68.176,212.573,81.318,202.874z"
					/>
				<path style="fill:#551118;" d="M114.306,202.874c0,0-5.431,14.399,5.026,26.584
					C119.332,229.458,127.448,212.573,114.306,202.874z"/>
				<path style="fill:#F4EFD7;" d="M91.551,241.643h12.65C104.201,241.643,98.238,250.751,91.551,241.643z"/>
				<path style="fill:#E69261;" d="M100.407,238.811h-5.062C95.345,238.811,97.731,235.166,100.407,238.811z"/>
				<polygon style="fill:#D0C4B3;" points="97.876,313.765 97.876,280.515 85.227,268.154 78.17,268.154 				"/>
				<polygon style="fill:#F4EFD7;" points="85.227,263.112 97.876,280.515 89.517,287.188 78.17,268.154 				"/>
				<polygon style="fill:#D2373A;" points="97.876,280.515 97.876,313.765 91.941,300.028 95.477,290.959 91.551,285.586 				"/>
				<polygon style="fill:#D0C4B3;" points="97.876,313.765 97.876,280.515 110.526,268.154 117.582,268.154 				"/>
				<polygon style="fill:#F4EFD7;" points="110.526,263.112 97.876,280.515 106.236,287.188 117.582,268.154 				"/>
				<path style="fill:#551118;" d="M93.271,222.609c0,0,0.236,2.343-1.466,2.353c-1.701,0.01-6.246-1.945-9.528-0.01
					C82.277,224.952,83.881,221.059,93.271,222.609z"/>
				<path style="fill:#551118;" d="M102.275,222.609c0,0-0.236,2.343,1.466,2.353c1.701,0.01,6.246-1.945,9.528-0.01
					C113.268,224.952,111.665,221.059,102.275,222.609z"/>
				<polygon style="fill:#EB3A27;" points="97.876,280.515 97.876,313.765 103.811,300.028 100.276,290.959 104.201,285.586 				"/>
				<path style="fill:#551118;" d="M81.318,202.874c0,0,4.619-10.4,13.396-13.002c8.777-2.602,26.667,19.059,34.8,16.198
					c0,0-4.859,12.97-21.784,10.096S81.318,202.874,81.318,202.874z"/>
			</g>
		</g>
	</g>
	<g>
		<circle style="fill:#70CACD;" cx="97.876" cy="393.827" r="61.739"/>
		<g>
			<defs>
				<circle id="SVGID_00000058576066538643238490000017510284365070054280_" cx="97.876" cy="393.827" r="61.739"/>
			</defs>
			<clipPath id="SVGID_00000119839490093836272950000003015235952845698727_">
				<use xlink:href="#SVGID_00000058576066538643238490000017510284365070054280_"  style="overflow:visible;"/>
			</clipPath>
			<g style="clip-path:url(#SVGID_00000119839490093836272950000003015235952845698727_);">
				<path style="fill:#526781;" d="M97.876,418.597v45.611h40.751v-22.831c0,0,0-21.247-21.045-22.78H97.876z"/>
				<path style="fill:#434667;" d="M97.876,418.597v45.611H57.125v-22.831c0,0,0-21.247,21.045-22.78H97.876z"/>
				<path style="fill:#FABF83;" d="M97.876,381.839v49.118c0,0-8.022,0-12.65-12.361v-26.673L97.876,381.839z"/>
				<path style="fill:#FADBA7;" d="M97.876,381.839v49.118c0,0,8.022,0,12.65-12.361v-26.673L97.876,381.839z"/>
				<path style="fill:#E67F69;" d="M110.961,400.964c0,0-8.95,14.868-25.734,17.633v-17.633H110.961z"/>
				<path style="fill:#FABF83;" d="M97.876,346.058v62.455c0,0-16.52-8.865-17.326-10.879
					C79.744,395.619,62.821,348.073,97.876,346.058z"/>
				<path style="fill:#FADBA7;" d="M97.876,346.058v29.764v32.691c0,0,16.52-8.865,17.326-10.879
					C116.008,395.619,132.931,348.073,97.876,346.058z"/>
				<path style="fill:#FABF83;" d="M75.178,377.27c0,0-2.028-4.252-5.241-3.118s-1.677,16.496,8.233,15.524
					C78.17,389.675,77.584,381.711,75.178,377.27z"/>
				<path style="fill:#FADBA7;" d="M120.345,377.27c0,0,2.028-4.252,5.241-3.118c3.213,1.134,1.677,16.496-8.233,15.524
					C117.353,389.675,117.939,381.711,120.345,377.27z"/>
				<path style="fill:#7D4938;" d="M81.318,353.317c0,0,5.431,14.399-5.026,26.584C76.292,379.901,68.176,363.016,81.318,353.317z"
					/>
				<path style="fill:#9C5C49;" d="M114.306,353.317c0,0-5.431,14.399,5.026,26.584
					C119.332,379.901,127.448,363.016,114.306,353.317z"/>
				<path style="fill:#F4EFD7;" d="M91.551,392.086h12.65C104.201,392.086,98.238,401.194,91.551,392.086z"/>
				<path style="fill:#E69261;" d="M100.407,389.254h-5.062C95.345,389.254,97.731,385.609,100.407,389.254z"/>
				<path style="fill:#443937;" d="M98.094,369.566v-6.669H74.031c0,0,3.826,6.669,8.055,6.669
					C86.315,369.566,98.094,369.566,98.094,369.566z"/>
				<path style="fill:#6D584F;" d="M98.094,369.566v-6.669h24.062c0,0-3.826,6.669-8.055,6.669
					C109.872,369.566,98.094,369.566,98.094,369.566z"/>
				<polygon style="fill:#526781;" points="85.227,413.555 97.876,430.958 89.517,437.63 78.17,418.597 				"/>
				<polygon style="fill:#61768E;" points="110.526,413.555 97.876,430.958 106.236,437.63 117.582,418.597 				"/>
				<path style="fill:#7D4938;" d="M93.271,373.052c0,0,0.236,2.343-1.466,2.353c-1.701,0.01-6.246-1.945-9.528-0.01
					C82.277,375.395,83.881,371.502,93.271,373.052z"/>
				<path style="fill:#9C5C49;" d="M102.275,373.052c0,0-0.236,2.343,1.466,2.353c1.701,0.01,6.246-1.945,9.528-0.01
					C113.268,375.395,111.665,371.502,102.275,373.052z"/>
				<polygon style="fill:#323450;" points="97.876,430.958 97.876,464.208 86.585,464.208 95.477,441.402 91.551,436.028 				"/>
				<polygon style="fill:#373956;" points="97.876,430.958 97.876,464.208 109.167,464.208 100.276,441.402 104.201,436.028 				"/>
				<path style="fill:#7D4938;" d="M97.876,394.242H87.78c0,0,1.815-4.313,10.097-4.313V394.242z"/>
				<path style="fill:#9C5C49;" d="M97.876,394.242h10.097c0,0-1.815-4.313-10.097-4.313V394.242z"/>
				<rect x="65.432" y="444.439" style="fill:#EF9E20;" width="16.915" height="4.771"/>
				<g>
					<path style="fill:#EF9E20;" d="M120.731,437.63v21.338c0,0-9.77-4.122-9.77-17.566L120.731,437.63z"/>
					<path style="fill:#F2B31B;" d="M120.731,437.63v21.338c0,0,9.77-4.122,9.77-17.566L120.731,437.63z"/>
					<polygon style="fill:#526781;" points="120.731,440.921 122.649,444.808 126.938,445.431 123.834,448.456 124.567,452.728 
						120.731,450.711 116.894,452.728 117.627,448.456 114.523,445.431 118.812,444.808 					"/>
				</g>
				<polygon style="fill:#434667;" points="98.094,362.897 98.094,338.83 73.298,346.058 65.432,359.042 74.031,362.897 				"/>
				<polygon style="fill:#526781;" points="98.193,362.897 98.193,338.83 122.988,346.058 130.854,359.042 122.255,362.897 				"/>
				<g>
					<path style="fill:#EF9E20;" d="M98.193,342.648v16.394c0,0-7.506-3.167-7.506-13.496L98.193,342.648z"/>
					<path style="fill:#F2B31B;" d="M98.193,342.648v16.394c0,0,7.506-3.167,7.506-13.496L98.193,342.648z"/>
					<polygon style="fill:#526781;" points="98.193,345.176 99.666,348.162 102.962,348.641 100.577,350.965 101.14,354.247 
						98.193,352.698 95.245,354.247 95.808,350.965 93.424,348.641 96.719,348.162 					"/>
				</g>
			</g>
		</g>
	</g>
	<g>
		<circle style="fill:#3BC0CB;" cx="402.124" cy="393.827" r="61.739"/>
		<g>
			<defs>
				<circle id="SVGID_00000012458310153983764900000008256145502942834842_" cx="402.124" cy="393.827" r="61.739"/>
			</defs>
			<clipPath id="SVGID_00000072258709846202661040000013773354447800703664_">
				<use xlink:href="#SVGID_00000012458310153983764900000008256145502942834842_"  style="overflow:visible;"/>
			</clipPath>
			<g style="clip-path:url(#SVGID_00000072258709846202661040000013773354447800703664_);">
				<path style="fill:#6E7C7D;" d="M402.124,416.29v45.611h40.751V439.07c0,0,0-21.247-21.045-22.78H402.124z"/>
				<path style="fill:#616364;" d="M402.124,416.29v45.611h-40.751V439.07c0,0,0-21.247,21.045-22.78H402.124z"/>
				<path style="fill:#FABF83;" d="M402.124,379.533v49.118c0,0-8.022,0-12.65-12.361v-26.673L402.124,379.533z"/>
				<path style="fill:#FADBA7;" d="M402.124,379.533v49.118c0,0,8.022,0,12.65-12.361v-26.673L402.124,379.533z"/>
				<path style="fill:#E67F69;" d="M415.208,398.657c0,0-8.95,14.868-25.734,17.633v-17.633H415.208z"/>
				<path style="fill:#FABF83;" d="M402.124,343.751v62.455c0,0-16.52-8.865-17.326-10.879
					C383.992,393.312,367.069,345.766,402.124,343.751z"/>
				<path style="fill:#FADBA7;" d="M402.124,343.751v29.764v32.691c0,0,16.52-8.865,17.326-10.879S437.179,345.766,402.124,343.751z
					"/>
				<path style="fill:#FABF83;" d="M379.426,374.963c0,0-2.028-4.252-5.241-3.118s-1.677,16.496,8.233,15.524
					C382.418,387.369,381.832,379.404,379.426,374.963z"/>
				<path style="fill:#FADBA7;" d="M424.593,374.963c0,0,2.028-4.252,5.241-3.118s1.677,16.496-8.233,15.524
					C421.601,387.369,422.187,379.404,424.593,374.963z"/>
				<path style="fill:#9D3522;" d="M385.566,351.01c0,0,5.431,14.399-5.026,26.584C380.54,377.594,372.423,360.709,385.566,351.01z"
					/>
				<path style="fill:#9D3522;" d="M418.553,351.01c0,0-5.431,14.399,5.026,26.584C423.58,377.594,431.696,360.709,418.553,351.01z"
					/>
				<path style="fill:#E69261;" d="M404.655,386.947h-5.062C399.593,386.947,401.979,383.302,404.655,386.947z"/>
				<path style="fill:#9D3522;" d="M397.518,370.745c0,0,0.236,2.343-1.466,2.353c-1.701,0.01-6.246-1.945-9.528-0.01
					C386.525,373.088,388.129,369.195,397.518,370.745z"/>
				<path style="fill:#9D3522;" d="M406.522,370.745c0,0-0.236,2.343,1.466,2.353c1.701,0.01,6.246-1.945,9.528-0.01
					C417.516,373.088,415.912,369.195,406.522,370.745z"/>
				<path style="fill:#C43728;" d="M402.15,334.521c-14.828,0-26.849,11.782-26.849,26.316v2.629c0,0-1.413,1.964-3.834,2.678
					c-2.421,0.715-1.989,1.355-1.989,1.355h32.672v-4.033V334.521L402.15,334.521z"/>
				<path style="fill:#EB3A27;" d="M402.15,334.521c14.828,0,26.849,11.782,26.849,26.316v2.629c0,0,1.413,1.964,3.834,2.678
					c2.421,0.715,1.989,1.355,1.989,1.355H402.15v-4.033V334.521L402.15,334.521z"/>
				<path style="fill:#EE4623;" d="M395.373,367.007c-0.98,0-1.799-0.77-1.849-1.76c-0.811-16.077-8.918-23.933-9-24.011
					c-0.743-0.703-0.775-1.877-0.071-2.619c0.703-0.743,1.875-0.776,2.619-0.071c0.378,0.358,9.269,8.97,10.153,26.514
					c0.052,1.022-0.735,1.893-1.757,1.944C395.437,367.006,395.405,367.007,395.373,367.007z"/>
				<path style="fill:#EE4623;" d="M409.374,367.007c-0.032,0-0.063-0.001-0.095-0.002c-1.022-0.051-1.809-0.922-1.757-1.944
					c0.884-17.544,9.774-26.157,10.152-26.514c0.742-0.705,1.916-0.672,2.619,0.071c0.703,0.741,0.672,1.912-0.067,2.616
					c-0.029,0.028-2.081,2.022-4.202,5.955c-1.958,3.631-4.381,9.711-4.801,18.059C411.173,366.237,410.355,367.007,409.374,367.007
					z"/>
				<path style="fill:#EE4623;" d="M402.15,355.521c-1.024,0-1.853-0.829-1.853-1.853v-19.147c0-1.024,0.829-1.853,1.853-1.853
					s1.853,0.829,1.853,1.853v19.147C404.003,354.692,403.174,355.521,402.15,355.521z"/>
				<ellipse style="fill:#EF9E20;" cx="402.052" cy="353.194" rx="4.264" ry="7.515"/>
				<path style="fill:#EE4623;" d="M434.851,369.352h-64.424c-1.024,0-1.853-0.829-1.853-1.853s0.829-1.853,1.853-1.853h64.424
					c1.024,0,1.853,0.829,1.853,1.853S435.875,369.352,434.851,369.352z"/>
				<path style="fill:#EF9E20;" d="M389.474,409.376c0,0-0.516,25.017,12.65,39.083v13.442h-40.751v-22.805
					c0,0,0.393-22.531,18.64-22.531C380.012,416.564,382.698,410.883,389.474,409.376z"/>
				<path style="fill:#F2B31B;" d="M414.773,409.376c0,0,0.516,25.017-12.65,39.083v13.442h40.751v-22.805
					c0,0-0.393-22.531-18.64-22.531C424.235,416.564,421.549,410.883,414.773,409.376z"/>
				<path style="fill:#F2B31B;" d="M402.124,448.459c0,0-11.84-10.469-12.65-39.083c0,0-6.837,1.137-9.462,7.188
					c-2.624,6.051,4.56,31.519,22.111,36.893V448.459z"/>
				<rect x="361.372" y="448.459" style="fill:#F2B31B;" width="40.751" height="2.754"/>
				<rect x="361.372" y="454.189" style="fill:#F2B31B;" width="40.751" height="2.754"/>
				<rect x="402.124" y="448.459" style="fill:#F3BE61;" width="40.751" height="2.754"/>
				<rect x="402.124" y="454.189" style="fill:#F3BE61;" width="40.751" height="2.754"/>
				<path style="fill:#F3BE61;" d="M402.124,448.459c0,0,11.84-10.469,12.65-39.083c0,0,6.837,1.137,9.462,7.188
					c2.624,6.051-4.56,31.519-22.111,36.893V448.459z"/>
				<path style="fill:#9D3522;" d="M402.124,406.676v-18.758c0,0-8.869-1.528-14.58,9.754L402.124,406.676z"/>
				<path style="fill:#C25530;" d="M402.124,406.676v-18.758c0,0,8.869-1.528,14.58,9.754L402.124,406.676z"/>
				<path style="fill:#F4EFD7;" d="M395.799,389.779h12.65C408.449,389.779,402.486,398.887,395.799,389.779z"/>
			</g>
		</g>
	</g>
</g>
</svg>
