<?xml version="1.0" encoding="utf-8"?>
<!-- Generator: Adobe Illustrator 27.5.0, SVG Export Plug-In . SVG Version: 6.00 Build 0)  -->
<svg version="1.1" id="Layer_1" xmlns="http://www.w3.org/2000/svg" xmlns:xlink="http://www.w3.org/1999/xlink" x="0px" y="0px"
	 viewBox="0 0 4000 4000" style="enable-background:new 0 0 4000 4000;" xml:space="preserve">
<g>
	<g>
		<rect style="fill:#7DCEFF;" width="4000" height="4000"/>
	</g>
	<g>
		<g>
			<g>
				<path style="fill:#C46835;" d="M1169.858,2717.087l-13.487,47.106c-7.943,5.545-16.035,10.79-24.377,15.785
					c-104.153,62.292-238.528,80.026-363.761,30.272c-62.092-15.835-73.531-82.273-6.694-76.779
					c-171.69-111.496-70.634-329.593-70.634-329.593c-5.445-15.086-8.542-28.374-9.791-39.763
					c-5.844-53.4,29.373-65.239,60.394-25.876c9.891,12.538,14.486,28.224,14.986,44.109c2.198,73.531,58.995,89.517,83.322,52.851
					c-35.667-13.837-38.265-56.597,37.615-51.752c117.191-57.546,213.302-28.573,270.348,38.414c0.05,0.05,0.1,0.15,0.15,0.2
					C1210.821,2495.992,1226.155,2616.081,1169.858,2717.087z"/>
			</g>
			<g style="opacity:0.6;">
				<g>
					<path style="fill:#FFFFFF;" d="M890.823,2403.515c0,0,190.731-93.739,298.235,90.11c0,0-5.894,53.877-6.936,51.576
						C1134.563,2440.175,1000.578,2376.101,890.823,2403.515z"/>
				</g>
			</g>
			<g>
				<path style="fill:#A54514;" d="M1325.514,2758.748c-2.948,35.667-15.636,66.838-43.809,95.461
					c-3.098,3.097-5.944,6.094-8.592,8.942c-56.248-18.783-101.806-48.655-141.119-83.173
					c-104.153,62.292-238.528,80.026-363.761,30.272c-62.092-15.835-73.531-82.273-6.694-76.779
					c-171.69-111.496-70.634-329.593-70.634-329.593c-5.445-15.086-8.542-28.374-9.791-39.763c7.243,0.649,11.29,1.249,11.29,1.249
					s-1.898-34.968,64.09,16.984c0,0-90.066,250.167,141.768,295.275c231.834,45.058,318.753-160.451,249.668-255.562
					c62.892,73.931,78.227,194.019,21.93,295.025C1213.418,2760.046,1268.067,2764.692,1325.514,2758.748z"/>
			</g>
			<g>
				<path style="fill:#640000;" d="M918.468,2853.743c-52.671,0-105.317-9.656-154.893-29.221
					c-44.155-11.658-66.045-45.229-61.699-71.187c1.875-11.226,8.828-22.498,22.471-29.153
					c-55.357-48.335-82.026-116.133-77.471-198.149c3.242-58.425,21.26-106.616,27.959-122.749
					c-4.453-13.342-7.344-25.942-8.618-37.532c-4.99-45.583,16.079-59.341,25.366-63.14c19.38-7.92,42.437,1.929,61.694,26.353
					c11.26,14.27,17.554,32.571,18.198,52.91c1.069,35.793,16.406,52.751,29.214,56.406c4.966,1.418,9.883,1.099,14.399-0.774
					c-11.103-10.02-16.435-23.25-13.584-36.179c2.407-10.947,14.243-35.706,72.876-33.054
					c110.205-52.678,216.45-36.404,284.81,43.87l-0.005,0.002c0.137,0.159,0.269,0.322,0.4,0.488
					c70.039,82.607,79.663,210.745,23.364,311.748c-4.023,7.231-13.149,9.832-20.386,5.796c-7.231-4.031-9.824-13.157-5.796-20.388
					c50.4-90.425,42.075-204.751-20.254-278.02l0.005-0.002c-0.137-0.156-0.268-0.317-0.396-0.479
					c-60.527-70.813-152.398-83.354-252.085-34.39c-2.344,1.152-4.897,1.675-7.563,1.504c-35.347-2.263-45.171,6.97-45.703,9.375
					c-0.571,2.593,3.775,9.302,14.463,13.45c4.233,1.643,7.49,5.112,8.862,9.436c1.372,4.326,0.713,9.041-1.797,12.822
					c-13.789,20.784-37.285,30.051-59.834,23.618c-23.613-6.738-49.399-32.424-50.952-84.309
					c-0.303-9.656-2.598-23.64-11.777-35.273c-12.31-15.62-22.808-18.818-26.807-17.168c-4.018,1.643-9.17,11.555-6.919,32.131
					c1.191,10.864,4.219,23.081,8.989,36.309c1.338,3.711,1.162,7.805-0.498,11.387c-0.239,0.513-24.331,53.428-27.749,118.384
					c-4.458,84.678,26.812,149.392,92.949,192.339c5.757,3.74,8.237,10.913,6.021,17.41c-2.222,6.497-8.555,10.662-15.415,10.095
					c-12.959-1.074-27.383,0.967-28.872,9.875c-1.782,10.627,11.616,30.078,40.498,37.444c0.625,0.159,1.235,0.356,1.831,0.593
					c113.521,45.1,244.551,34.182,350.537-29.204c7.93-4.746,15.835-9.866,23.491-15.212c6.792-4.739,16.138-3.079,20.864,3.708
					c4.741,6.787,3.081,16.128-3.706,20.867c-8.228,5.745-16.729,11.248-25.264,16.357
					C1072.242,2833.176,995.333,2853.74,918.468,2853.743z"/>
			</g>
			<g>
				<path style="fill:#FFAC43;" d="M1633.926,2808.751v73.332l-14.986,6.694l-23.379,10.44l-71.633,31.92l-5.295-3.047
					l-78.277-44.908c-18.482,1.049-36.066,1.199-52.951,0.399h-0.05c-19.981-0.849-38.963-2.947-56.896-6.044
					c-20.331-3.497-39.364-8.392-57.346-14.386c-56.248-18.783-101.806-48.655-141.119-83.173c-1.998-1.748-3.996-3.497-5.995-5.295
					c-62.042-53.85,1.149-125.583,43.859-57.596c43.559,42.96,98.209,47.605,155.655,41.661
					c82.523-8.542,170.941-38.964,240.976-9.292c20.481,8.692,39.413,22.529,56.148,43.51
					C1626.533,2797.811,1630.28,2803.106,1633.926,2808.751z"/>
			</g>
			<g>
				<path style="fill:#F4862C;" d="M1633.926,2808.751v73.332l-14.986,6.694l-23.379,10.44l-71.633,31.92l-5.295-3.047
					l-78.277-44.908c-18.482,1.049-36.066,1.199-52.951,0.399h-0.05c-19.981-0.849-38.963-2.947-56.896-6.044l1.748-4.396
					c0,0,49.904-145.615,234.132-123.685h0.15c20.481,8.692,39.413,22.529,56.148,43.51
					C1626.533,2797.811,1630.28,2803.106,1633.926,2808.751z"/>
			</g>
			<g>
				<path style="fill:#640000;" d="M1523.927,2946.123c-2.588,0-5.171-0.669-7.475-1.997l-79.717-45.745
					c-17.354,0.854-34.092,0.918-49.829,0.178c-0.064,0-0.127-0.002-0.186-0.005c-41.816-1.768-81.641-8.896-118.369-21.194
					c-52.3-17.466-100.142-45.637-146.245-86.123c-2.031-1.775-4.077-3.567-6.128-5.41c-25.522-22.151-36.26-50.962-28.53-76.902
					c5.562-18.665,19.995-31.76,37.676-34.172c20.557-2.815,41.025,9.138,56.431,32.808c33.457,32.28,76.187,43.14,142.417,36.279
					c21.626-2.239,44.277-6.116,66.182-9.868c88.511-15.164,180.049-30.84,244.204,49.653c4.028,5.007,8.018,10.583,12.158,16.997
					c4.492,6.951,2.495,16.228-4.458,20.718c-6.953,4.495-16.23,2.495-20.718-4.458c-3.574-5.532-6.968-10.283-10.381-14.526
					c-53.154-66.692-132.144-53.164-215.747-38.843c-22.388,3.835-45.537,7.8-68.154,10.142
					c-51.035,5.288-116.265,4.846-167.72-45.898c-0.825-0.811-1.553-1.716-2.168-2.698c-8.857-14.092-19.297-21.809-27.993-20.608
					c-5.864,0.801-10.85,5.796-13.008,13.035c-4.272,14.338,3.076,31.492,19.653,45.879c2.148,1.929,4.097,3.633,6.04,5.337
					c43.066,37.815,87.544,64.055,135.996,80.234c34.023,11.392,71.011,18.005,109.956,19.666c0.102,0.002,0.21,0.007,0.303,0.012
					c16.104,0.759,33.394,0.63,51.392-0.393c2.925-0.173,5.786,0.515,8.306,1.963l76.977,44.163l103.023-45.945
					c7.563-3.381,16.421,0.015,19.795,7.568c3.379,7.559-0.015,16.421-7.568,19.797l-110.015,49.06
					C1528.082,2945.693,1526.002,2946.123,1523.927,2946.123z"/>
			</g>
			<g>
				<g>
					<path style="fill:#FFAC43;" d="M3104.557,3465.04c-43.459,7.093-84.671,9.791-119.638,0
						c-49.754,4.446-97.909,7.443-125.583-8.542c0,0-37.514,2.698-75.08,1.749c-33.769-0.849-67.587-4.646-74.281-15.885
						c-14.137-23.778-274.994-19.282-274.994-19.282s-27.025,5.395-67.388,10.74c-43.509,5.745-102.554,11.39-160.001,10.041
						c-74.631,1.748-151.959-8.292-194.469-15.036c-20.53-3.247-32.919-5.745-32.919-5.745s-133.426-2.298-214.6,5.095
						c-32.32,2.947-56.348,7.443-60.344,14.187c-14.087,23.778-149.362,14.137-149.362,14.137
						c-27.674,15.985-75.829,12.988-125.583,8.542c-34.967,9.791-76.229,7.093-119.638,0c-42.111-2.348-68.936-25.576-81.124-56.847
						c-26.776-68.137,15.685-174.488,120.038-186.277c-97.609-313.108,107.151-466.915,257.111-348.775
						c29.972-185.078,95.46-332.39,224.391-412.166h753.049c2.248,1.399,4.495,2.797,6.694,4.296
						c21.28,13.737,40.762,29.373,58.596,46.856c25.226,24.577,47.156,52.701,66.138,83.872
						c46.456,75.979,75.629,170.241,92.963,277.142c149.961-118.14,354.72,35.667,257.111,348.775
						C3217.852,3239.151,3238.282,3457.597,3104.557,3465.04z"/>
				</g>
				<g>
					<path style="fill:#F4862C;" d="M1699.615,2596c10.141,10.14,17.484,16.984,17.484,16.984
						c66.638-31.471,130.379-34.518,192.471-22.179c101.606,20.131,198.965,81.274,298.023,126.282l-66.888-236.28
						c-3.047-4.246-8.442-9.891-18.532-19.832h-291.129c-2.248,1.399-4.495,2.797-6.694,4.296l-10.64-15.685
						c-18.083,19.831-34.019,40.712-47.956,62.542C1740.527,2536.704,1718.597,2564.828,1699.615,2596z"/>
				</g>
				<g>
					<path style="fill:#F4862C;" d="M2715.57,2596c-10.141,10.14-17.484,16.984-17.484,16.984
						c-66.638-31.471-130.379-34.518-192.471-22.179c-101.606,20.131-198.965,81.274-298.023,126.282l66.888-236.28
						c3.047-4.246,8.442-9.891,18.532-19.832h291.129c2.248,1.399,4.495,2.797,6.694,4.296l10.64-15.685
						c18.083,19.831,34.019,40.712,47.956,62.542C2674.657,2536.704,2696.587,2564.828,2715.57,2596z"/>
				</g>
				<g>
					<path style="fill:#F4862C;" d="M1765.604,3428.175c-32.32,2.947-56.348,7.443-60.344,14.187
						c-14.087,23.778-149.362,14.137-149.362,14.137c-27.674,15.985-75.829,12.988-125.583,8.542
						c-34.967,9.791-76.229,7.093-119.638,0c-42.111-2.348-68.936-25.576-81.124-56.847
						c112.445,37.065,311.459,12.688,277.691-36.017c-42.76-61.692-2.996-108.499,10.241-109.598
						c13.188-1.099,36.966,34.568,36.966,34.568c49.454-57.497-125.495-333.812-8.204-394.261
						c96.604-49.788,145.153,161.998,149.572,137.601l165.497,61.543c0,0,22.279,25.276,56.497,62.442
						C1933.697,3181.754,1866.01,3305.439,1765.604,3428.175z"/>
				</g>
				<g>
					<path style="fill:#F4862C;" d="M2649.623,3428.175c32.321,2.947,56.348,7.443,60.344,14.187
						c14.087,23.778,149.362,14.137,149.362,14.137c27.674,15.985,75.829,12.988,125.583,8.542c34.967,9.791,76.229,7.093,119.638,0
						c42.111-2.348,68.936-25.576,81.125-56.847c-112.445,37.065-311.459,12.688-277.691-36.017
						c42.76-61.692,2.996-108.499-10.241-109.598c-13.188-1.099-36.966,34.568-36.966,34.568
						c-49.454-57.497,125.495-333.812,8.204-394.261c-96.604-49.788-145.153,161.998-149.572,137.601l-165.497,61.543
						c0,0-22.279,25.276-56.497,62.442C2481.53,3181.754,2549.217,3305.439,2649.623,3428.175z"/>
				</g>
				<g>
					<path style="fill:#FFFFFF;" d="M2402.061,3428.824c-42.51,6.743-119.838,16.784-194.469,15.036
						c-74.631,1.748-151.959-8.292-194.469-15.036c9.991-128.98,24.328-326.047,24.328-326.047l4.345-106.101l7.943-193.021
						c0,0-65.789-160.101,157.853-166.794c7.792,0.25,15.236,0.649,22.329,1.249c39.664,3.297,68.836,11.989,90.166,23.828
						c84.422,46.607,45.358,141.718,45.358,141.718l7.243,176.586l5.045,122.536
						C2377.733,3102.777,2392.071,3299.844,2402.061,3428.824z"/>
				</g>
				<g>
					<path style="fill:#C3DEF4;" d="M2320.087,2661.938c-37.465,18.583-74.831,38.015-112.495,55.149l22.329-78.977
						C2269.585,2641.407,2298.757,2650.099,2320.087,2661.938z"/>
				</g>
				<g>
					<path style="fill:#C3DEF4;" d="M2402.061,3428.824c-42.51,6.743-119.838,16.784-194.469,15.036
						c-74.631,1.748-151.959-8.292-194.469-15.036c9.991-128.98,24.328-326.047,24.328-326.047l4.345-106.101
						c119.09,143.017,229.237,137.522,330.343-16.485c0,0,0.199,0,0.549,0.05l5.045,122.536
						C2377.733,3102.777,2392.071,3299.844,2402.061,3428.824z"/>
				</g>
				<g>
					<path style="fill:#640000;" d="M1347.705,3207.057c83.179-8.143,169.116,25.919,217.336,95.143
						c3.652,5.03-3.666,10.97-7.802,6.232c-25.138-29.26-57.497-52.147-94.023-64.106c-36.013-11.992-74.795-13.733-111.78-7.53
						C1331.045,3239.519,1327.132,3209.528,1347.705,3207.057L1347.705,3207.057z"/>
				</g>
				<g>
					<path style="fill:#640000;" d="M1324.673,3477.245c-51.112-32.68-58.585-110.367-5.858-144.739
						c5.092-3.407,10.697,3.867,6.097,7.906c-17.722,15.211-26.749,38.821-22.541,61.476c3.625,21.387,18.18,40.268,37.417,49.476
						C1358.603,3461.451,1342.773,3488.683,1324.673,3477.245L1324.673,3477.245z"/>
				</g>
				<g>
					<path style="fill:#640000;" d="M1422.344,3359.165c-13.646,26.319-11.255,62.403,12.64,81.344
						c7.055,5.715,15.432,9.272,24.167,10.706c8.203,1.345,13.76,9.084,12.415,17.286c-1.396,8.997-10.809,14.732-19.446,11.896
						c-13.154-4.202-25.323-11.795-34.456-21.891c-9.055-9.89-15.205-21.937-18.179-34.385c-3.005-12.465-2.886-25.31-0.222-37.28
						c2.654-11.998,7.817-23.094,14.514-32.816c1.567-2.277,4.683-2.85,6.958-1.283
						C1422.84,3354.188,1423.485,3356.963,1422.344,3359.165L1422.344,3359.165z"/>
				</g>
				<g>
					<path style="fill:#640000;" d="M1378.707,3486.418c-20.229,0-43.086-2.153-69.673-6.455
						c-60.318-3.716-100.41-47.117-102.227-110.781c-1.89-66.128,40.708-141.189,123.545-159.263
						c-54.248-190.63,2.603-311.638,75.605-361.88c57.261-39.414,128.232-39.167,189.971-0.737
						c35.654-195.925,110.132-326.602,227.295-399.065c7.041-4.358,16.274-2.178,20.625,4.861
						c4.355,7.039,2.178,16.274-4.863,20.627c-113.945,70.479-185.093,201.919-217.505,401.833
						c-0.85,5.242-4.409,9.641-9.355,11.567c-4.946,1.929-10.552,1.094-14.717-2.195c-56.094-44.209-121.318-48.772-174.453-12.202
						c-63.257,43.533-116.68,159.939-59.077,344.736c1.328,4.268,0.688,8.904-1.753,12.649c-2.446,3.743-6.431,6.201-10.869,6.702
						c-76.553,8.657-116.123,74.219-114.487,131.509c1.074,37.578,21.27,78.789,74.741,81.76c0.532,0.029,1.055,0.088,1.577,0.173
						c50.029,8.149,84.941,8.259,113.203,0.356c1.743-0.488,3.545-0.659,5.366-0.493c46.133,4.116,93.149,7.002,116.768-6.606
						c2.588-1.494,5.625-2.175,8.545-1.963c62.646,4.47,125.645,1.018,135.747-7.375c5.523-9.214,15.532-21.487,154.907-25.352
						c66.543-1.848,132.202-0.762,132.852-0.747c0.903,0.015,1.807,0.112,2.69,0.288c1.152,0.232,116.338,23.098,224.097,20.52
						c0.234-0.005,0.469-0.005,0.703,0c107.769,2.524,222.939-20.288,224.092-20.518c0.889-0.178,1.787-0.276,2.695-0.291
						c0.649-0.015,66.309-1.104,132.852,0.747c139.385,3.865,149.385,16.14,154.907,25.352c10.117,8.396,73.11,11.843,135.742,7.375
						c2.974-0.2,5.957,0.471,8.55,1.963c23.623,13.608,70.635,10.725,116.772,6.606c1.802-0.164,3.623,0.007,5.366,0.493
						c28.267,7.903,63.169,7.791,113.198-0.356c0.522-0.085,1.045-0.144,1.577-0.173c53.472-2.971,73.667-44.182,74.741-81.76
						c1.636-57.29-37.93-122.852-114.482-131.509c-4.438-0.5-8.423-2.959-10.869-6.702c-2.441-3.743-3.081-8.381-1.753-12.649
						c57.603-184.797,4.175-301.204-59.082-344.736c-53.135-36.575-118.354-32.012-174.453,12.202
						c-4.17,3.289-9.78,4.116-14.717,2.195c-4.946-1.926-8.506-6.326-9.355-11.567c-32.407-199.91-103.555-331.353-217.505-401.833
						c-7.041-4.353-9.219-13.589-4.863-20.627c4.346-7.039,13.594-9.219,20.625-4.861c117.168,72.466,191.65,203.142,227.3,399.065
						c61.719-38.425,132.705-38.672,189.961,0.737c73.008,50.242,129.858,171.25,75.615,361.88
						c82.832,18.074,125.43,93.132,123.54,159.263c-1.816,63.665-41.909,107.065-102.227,110.781
						c-52.637,8.518-90.669,8.608-122.617,0.249c-51.523,4.541-96.768,6.78-127.505-8.462
						c-63.569,4.287-140.083,3.96-157.827-19.954c-19.189-10.913-149.517-15.627-261.646-13.774
						c-14.028,2.739-123.145,23.289-228.984,20.837c-105.967,2.439-214.956-18.096-228.984-20.837
						c-112.104-1.855-242.436,2.866-261.646,13.774c-17.739,23.916-94.228,24.253-157.827,19.954
						c-30.742,15.242-75.986,13.005-127.5,8.462C1415.841,3484.351,1398.536,3486.418,1378.707,3486.418z M1718.155,3450.034
						c-0.005,0.007-0.01,0.015-0.015,0.024C1718.145,3450.051,1718.15,3450.042,1718.155,3450.034z M2697.071,3450.032
						c0.005,0.01,0.01,0.017,0.015,0.024C2697.081,3450.049,2697.076,3450.042,2697.071,3450.032z M1692.955,3433.967
						L1692.955,3433.967C1692.955,3433.965,1692.955,3433.967,1692.955,3433.967z M2722.271,3433.967"/>
				</g>
				<g>
					<path style="fill:#640000;" d="M3063.792,3236.797c-36.985-6.204-75.767-4.463-111.78,7.529
						c-36.522,11.958-68.872,34.838-94.011,64.092c-1.807,2.085-4.963,2.311-7.048,0.501c-1.975-1.71-2.271-4.645-0.767-6.721
						c11.943-16.376,25.881-31.508,41.814-44.512c15.908-13.019,33.782-23.857,52.888-32.029
						c38.279-16.432,80.911-22.053,122.634-18.601c8.257,0.684,14.395,7.93,13.711,16.187
						C3080.558,3231.949,3072.388,3238.282,3063.792,3236.797L3063.792,3236.797z"/>
				</g>
				<g>
					<path style="fill:#640000;" d="M3075.439,3451.364c42.872-20.206,52.128-79.861,14.945-110.89
						c-2.126-1.813-2.361-5.03-0.507-7.124c1.682-1.902,4.485-2.222,6.536-0.844c11.147,7.471,20.894,17.777,27.329,30.253
						c20.989,39.41,3.725,91.096-33.433,114.648C3072.309,3488.467,3056.738,3461.265,3075.439,3451.364L3075.439,3451.364z"/>
				</g>
				<g>
					<path style="fill:#640000;" d="M3001.45,3354.025c22.067,30.44,22.866,75.967-3.887,104.481
						c-10.517,11.564-44.115,36.245-53.356,12.235c-2.915-8.659,2.856-18.117,11.87-19.527c18.225-2.794,33.656-15.63,40.588-33.037
						c7.728-18.697,5.311-40.69-3.781-59.012C2990.033,3353.728,2998.005,3348.939,3001.45,3354.025L3001.45,3354.025z"/>
				</g>
				<g>
					<path style="fill:#FFAC43;" d="M2078.313,3327.219c-11.59,115.592-57.697,163.148-137.122,144.865
						c-42.011,7.243-82.573,7.643-121.487,0c-30.322,13.138-73.831,12.688-122.586,6.694
						c-105.751-4.446-124.184-99.707-79.176-167.794c0.049-0.05,0.049-0.1,0.049-0.1c19.981-30.172,52.402-54.999,95.211-64.19
						c5.145-84.021-17.334-159.252-23.528-282.887c-21.43-201.812,2.948-381.445,124.085-514.221l222.942,328.444
						c15.436,26.375,25.976,56.347,33.07,89.167c4.345,20.231,7.343,41.511,9.391,63.791v0.15
						c2.398,26.076,3.447,53.45,3.697,81.874C2083.608,3108.672,2075.265,3216.372,2078.313,3327.219z"/>
				</g>
				<g>
					<path style="fill:#F4862C;" d="M1717.099,2612.983c66.638-31.471,130.379-34.518,192.471-22.179l-85.22-125.533l-10.64-15.685
						c-18.083,19.831-34.019,40.712-47.956,62.542C1745.522,2543.798,1729.487,2577.467,1717.099,2612.983z"/>
				</g>
				<g>
					<path style="fill:#F4862C;" d="M2078.313,3327.219c-11.59,115.592-57.697,163.148-137.122,144.865
						c-42.011,7.243-82.573,7.643-121.487,0c-30.322,13.138-73.831,12.688-122.586,6.694
						c-105.751-4.446-124.184-99.707-79.176-167.794c-0.8,3.597-20.781,92.414,73.481,107.6
						c96.161,15.535,333.64,3.347,201.962-145.115c0,0-44.309-28.773-95.96-37.665c-51.652-8.941-75.78,0-75.78,0l2.947-23.778
						c177.585,0.25,305.666-87.718,254.863-494.939c0,0,65.39,57.496,90.316,150.11c5.295,19.732,8.792,41.062,9.391,63.791v0.15
						c0.55,21.53,1.949,49.604,3.697,81.874C2083.608,3108.672,2075.265,3216.372,2078.313,3327.219z"/>
				</g>
				<g>
					<path style="fill:#640000;" d="M2043.164,2774.255c48.971,82.259,50.988,182.21,52.203,274.969
						c-0.252,92.711-4.555,185.181-1.602,277.554c-5.389,58.702-21.194,132.26-82.099,157.571
						c-24.065,8.866-51.006,8.34-73.814,2.362c0,0.001,5.899,0.164,5.899,0.164c-41.497,7.172-84.8,8.234-126.924-0.063l8.838-0.952
						c-41.512,16.854-87.443,12.449-130.386,7.811c-70.895-2.111-126.452-52.963-113.383-131.775
						c10.576-64.945,64.857-116.762,128.154-129.85c0,0-11.81,13.737-11.81,13.737c3.882-67.866-10.546-135.908-17.329-203.961
						c-4.034-33.423-5.233-70.208-8.677-103.814c-9.469-109.076-5.61-222.014,29.646-326.618
						c21.66-63.143,55.982-122.342,100.816-171.901c13.465-14.137,35.187,4.581,22.338,19.978
						c-22.388,25.041-42.18,52.285-58.869,81.411c-67.238,119.24-75.596,260.907-64.05,394.8
						c3.451,33.388,4.604,69.725,8.599,102.946c6.974,69.316,21.537,138.19,17.444,208.987c-0.396,6.819-5.308,12.302-11.663,13.71
						c-51.731,10.537-96.575,53.089-105.031,105.492c-9.837,59.946,30.233,95.586,87.456,97.108
						c37.607,4.159,80.107,8.297,114.839-5.565c2.884-1.258,5.965-1.521,8.838-0.954c39.538,8.5,80.549,5.092,120.798-0.097
						c34.065,8.048,68.68,1.824,88.542-28.509c19.726-26.193,27.707-76.264,30.925-101.174c-0.993-46.793-0.009-93.452,1.92-139.89
						c2.991-114.385,16.955-231.072-9.959-343.207c-5.824-21.846-13.817-43.061-24.635-62.783
						C2025.626,2773.461,2037.966,2765.948,2043.164,2774.255L2043.164,2774.255z"/>
				</g>
				<g>
					<path style="fill:#640000;" d="M1709.15,3232.268c99.323-24.25,224.025,25.108,266.229,120.902
						c1.054,2.55-0.157,5.472-2.706,6.528c-2.48,1.028-5.306-0.098-6.433-2.487c-10.754-21.742-27.178-40.294-46.086-55.339
						c-55.732-44.034-135.806-61.933-202.908-40.746C1697.631,3266.65,1689.379,3237.86,1709.15,3232.268L1709.15,3232.268z"/>
				</g>
				<g>
					<path style="fill:#640000;" d="M1715.19,3495.792c-25.544-4.897-49.759-24.635-55.766-50.352
						c-6.249-23.99-0.45-51.269,18.354-67.836c4.602-3.955,11.002,2.457,7.068,7.038c-18.156,21.33-13.576,59.375,10.261,74.112
						c7.208,4.551,15.692,6.74,24.536,7.389C1740.803,3468.597,1736.186,3499.653,1715.19,3495.792L1715.19,3495.792z"/>
				</g>
				<g>
					<path style="fill:#640000;" d="M1834.624,3489.567c-33.419-11.641-62.713-40.601-58.412-78.334
						c0.932-11.142,3.908-21.534,7.499-31.451c0.94-2.598,3.806-3.94,6.404-3c2.415,0.87,3.737,3.414,3.174,5.837
						c-3.433,17.89-4.274,38.296,6.084,53.336c9.387,13.9,26.023,21.274,43.838,24.896
						C1864.223,3466.063,1855.103,3496.738,1834.624,3489.567L1834.624,3489.567z"/>
				</g>
				<g>
					<path style="fill:#FFAC43;" d="M2784.256,3458.247c-16.185,11.739-38.115,19.332-66.138,20.531
						c-48.755,5.995-92.265,6.444-122.586-6.694c-38.914,7.643-79.476,7.243-121.537,0c-47.456,10.94-83.022-1.648-106.401-38.264
						c-15.735-24.627-26.026-60.094-30.671-106.601c5.944-217.747-31.97-423.606,41.611-549.188l127.082-187.226l85.22-125.533
						l10.64-15.685c18.083,19.831,34.019,40.712,47.956,62.542c20.231,31.671,36.266,65.339,48.655,100.856
						c36.216,103.803,41.062,222.843,27.475,350.823c-6.194,123.635-28.673,198.865-23.529,282.887
						C2815.876,3271.171,2856.288,3405.995,2784.256,3458.247z"/>
				</g>
				<g>
					<path style="fill:#F4862C;" d="M2698.086,2612.983c-66.638-31.471-130.379-34.518-192.471-22.179l85.22-125.533l10.64-15.685
						c18.083,19.831,34.019,40.712,47.956,62.542C2669.662,2543.798,2685.698,2577.467,2698.086,2612.983z"/>
				</g>
				<g>
					<path style="fill:#C3DEF4;" d="M2095.097,2661.938c37.465,18.583,74.831,38.015,112.495,55.149l-22.329-78.977
						C2145.6,2641.407,2116.427,2650.099,2095.097,2661.938z"/>
				</g>
				<g>
					<path style="fill:#F4862C;" d="M2336.915,3327.219c11.589,115.592,57.696,163.148,137.122,144.865
						c42.011,7.243,82.573,7.643,121.487,0c30.322,13.138,73.832,12.688,122.586,6.694c105.751-4.446,124.184-99.707,79.176-167.794
						c0.8,3.597,20.781,92.414-73.481,107.6c-96.16,15.535-333.639,3.347-201.962-145.115c0,0,44.309-28.773,95.96-37.665
						c51.652-8.941,75.78,0,75.78,0l-2.947-23.778c-177.585,0.25-305.666-87.718-254.863-494.939c0,0-65.389,57.496-90.316,150.11
						c-5.295,19.732-8.792,41.062-9.391,63.791v0.15c-0.55,21.53-1.949,49.604-3.697,81.874
						C2331.619,3108.672,2339.962,3216.372,2336.915,3327.219z"/>
				</g>
				<g>
					<path style="fill:#640000;" d="M2384.995,2781.83c-59.9,111.416-37.044,281.028-34.548,405.902
						c1.928,46.438,2.912,93.097,1.919,139.89c3.146,24.892,11.304,74.849,30.927,101.174
						c19.874,30.278,54.414,36.576,88.483,28.523c40.263,5.123,81.315,8.617,120.857,0.081c3.094-0.608,6.144-0.214,8.84,0.955
						c34.746,13.854,77.207,9.698,114.836,5.567c56.939-1.458,97.404-37.132,87.458-97.111
						c-8.475-52.419-53.283-94.929-105.019-105.491c-6.667-1.475-11.296-7.212-11.677-13.71
						c-4.094-70.792,10.471-139.674,17.444-208.987c3.995-33.187,5.177-69.621,8.599-102.946
						c11.55-133.881,3.184-275.579-64.048-394.8c-16.694-29.129-36.489-56.376-58.879-81.42
						c-12.676-14.483,8.463-34.657,22.346-19.969c47.669,52.902,83.948,116.538,104.792,184.619
						c31.859,100.941,34.599,209.263,25.669,313.901c-3.479,33.667-4.644,70.358-8.677,103.813
						c-6.781,68.046-21.209,136.103-17.329,203.961c0,0-11.809-13.738-11.809-13.738c63.29,13.081,117.585,64.913,128.154,129.852
						c12.951,78.706-42.123,129.58-113.384,131.772c-42.942,4.649-88.873,9.032-130.385-7.809c0,0,8.838,0.952,8.838,0.952
						c-42.124,8.297-85.427,7.235-126.924,0.063l5.898-0.164c-22.799,5.966-49.77,6.537-73.813-2.364
						c-60.918-25.335-76.675-98.873-82.1-157.57c2.954-92.376-1.349-184.841-1.602-277.554
						c1.207-92.756,3.234-192.718,52.202-274.97C2377.339,2766.147,2389.584,2773.183,2384.995,2781.83L2384.995,2781.83z"/>
				</g>
				<g>
					<path style="fill:#640000;" d="M2697.981,3261.127c-67.107-21.187-147.171-3.287-202.908,40.746
						c-18.909,15.045-35.332,33.598-46.086,55.34c-1.192,2.523-4.233,3.592-6.736,2.349c-2.368-1.172-3.391-3.983-2.402-6.389
						c9.99-24.135,26.301-45.223,45.491-62.693c58.753-52.563,143.225-76.772,220.737-58.211
						C2725.707,3237.702,2717.696,3266.703,2697.981,3261.127L2697.981,3261.127z"/>
				</g>
				<g>
					<path style="fill:#640000;" d="M2695.723,3466.133c29.022-0.742,48.713-26.329,45.48-54.807
						c-0.939-9.579-4.379-19.122-10.688-26.53c-1.917-2.084-1.732-5.372,0.435-7.206c1.902-1.619,4.663-1.566,6.499,0.013
						c18.805,16.571,24.601,43.844,18.355,67.837c-6.009,25.714-30.222,45.456-55.768,50.351
						C2678.972,3499.646,2674.418,3468.447,2695.723,3466.133L2695.723,3466.133z"/>
				</g>
				<g>
					<path style="fill:#640000;" d="M2572.017,3460.851c43.456-8.144,58.941-36.629,49.921-78.233
						c-1.346-6.046,7.433-8.649,9.579-2.836c13.503,33.232,10.389,70.623-20.604,93.284c-9.452,7.277-19.902,12.51-30.497,16.574
						C2560.015,3496.505,2551.098,3466.05,2572.017,3460.851L2572.017,3460.851z"/>
				</g>
				<g>
					<path style="fill:#640000;" d="M1617.39,2862.673c18.404,24.839,29.21,54.841,30.408,85.595
						c0.25,6.042-8.493,7.235-9.895,1.378c-7.025-25.344-21.957-49.069-41.921-65.999
						C1578.017,2868.807,1602.823,2844.419,1617.39,2862.673L1617.39,2862.673z"/>
				</g>
				<g>
					<path style="fill:#640000;" d="M2819.246,2883.649c-20.048,16.997-34.995,40.825-42.004,66.283
						c-0.781,2.655-3.567,4.175-6.221,3.394c-2.266-0.667-3.704-2.797-3.591-5.056c0.537-14.98,3.394-29.993,8.525-44.176
						c5.487-15.15,12.377-29.093,22.397-42.069C2813.334,2844.934,2836.858,2869.232,2819.246,2883.649L2819.246,2883.649z"/>
				</g>
			</g>
			<g>
				<path style="fill:#C46835;" d="M3254.667,1640.339c101.705,108.349,22.03,303.917,55.698,472.86c0,0-46.407,12.039-96.56-42.61
					c-61.693,164.247-243.823,191.822-252.665,335.887c-38.115,6.144-63.891-19.582-73.581-86.919
					c-94.063,109.548-429.5,175.337-679.967,397.53c-250.417-222.193-585.904-287.982-679.917-397.53
					c-9.691,67.337-35.467,93.063-73.581,86.919c-8.842-144.066-190.972-171.64-252.665-335.887
					c-50.153,54.649-96.61,42.61-96.61,42.61c33.719-168.943-45.957-364.511,55.748-472.86
					c-52.701-10.69-80.125-37.066-83.972-78.028c80.625-56.747,122.936-117.69,190.673-268.25
					c6.444-14.237,13.088-29.273,19.981-45.158c28.823-80.375,60.844-152.608,95.96-216.998
					c168.992-310.511,408.719-439.94,702.546-430.799c-9.191-38.614-33.069-61.143-61.693-78.427
					c96.26-12.888,150.56,20.931,183.529,78.427c33.019-57.497,87.319-91.315,183.579-78.427
					c-28.673,17.284-52.501,39.813-61.692,78.427c354.77-11.039,630.663,179.933,798.457,647.797
					c80.125,184.179,122.436,251.316,210.704,313.408C3334.793,1603.273,3307.368,1629.649,3254.667,1640.339z"/>
			</g>
			<g style="opacity:0.6;">
				<g>
					<path style="fill:#FFFFFF;" d="M1786.885,699.317c4.092-0.495,164.108-85.21,343.445-65.394c0,0-188.3-43.037-367.695,35.604
						L1786.885,699.317z"/>
				</g>
			</g>
			<g style="opacity:0.6;">
				<g>
					<path style="fill:#FFFFFF;" d="M2628.342,699.317c-4.092-0.495-164.108-85.21-343.445-65.394c0,0,188.3-43.037,367.695,35.604
						L2628.342,699.317z"/>
				</g>
			</g>
			<g>
				<path style="fill:#A54514;" d="M1527.668,2319.544c178.347,130.044,555.216,281.889,679.949,397.543v-161.234
					c-109.301-104.352-342.577-147.136-502.346-201.383c-159.769-54.247-187.264-162.989-187.264-162.989
					c-33.961,83.906-79.151,67.441-125.833,37.651c0,0,98.338,90.412,72.329,168.438
					C1464.504,2397.571,1520.98,2384.195,1527.668,2319.544z"/>
			</g>
			<g>
				<path style="fill:#A54514;" d="M1633.933,1099.838c0,0-302.948,323.634-212.569,799.56l123.395-111.896L1633.933,1099.838z"/>
			</g>
			<g>
				<path style="fill:#A54514;" d="M1142.737,1938.329c0,0,10.651,70.348,40.871,75.797c30.22,5.449,110.476-121.87,110.476-121.87
					c-43.16,115.99-47.996,217.553,0,299.225l-92.641-120.879l-66.88,15.357C1149.945,2053.934,1139.022,1992.08,1142.737,1938.329z
					"/>
			</g>
			<g>
				<path style="fill:#A54514;" d="M1096.076,1547.897c-0.417,0.336,86.046,59.004,193.053-18.279c0,0-17.092,64.889-66.137,88.921
					s-122.23-5.407-122.23-5.407l-24.163-50.817L1096.076,1547.897z"/>
			</g>
			<g>
				<path style="fill:#A54514;" d="M1445.701,1214.036c0,0-55.048,81.674-178.434,80.026c6.444-14.237,13.088-29.273,19.981-45.158
					c28.823-80.375,60.844-152.608,95.96-216.998L1445.701,1214.036z"/>
			</g>
			<g>
				<path style="fill:#A54514;" d="M2887.566,2319.544c-178.347,130.044-555.216,281.889-679.949,397.543v-161.234
					c109.301-104.352,342.577-147.136,502.346-201.383c159.769-54.247,187.264-162.989,187.264-162.989
					c33.961,83.906,79.151,67.441,125.833,37.651c0,0-98.338,90.412-72.329,168.438
					C2950.73,2397.571,2894.255,2384.195,2887.566,2319.544z"/>
			</g>
			<g>
				<path style="fill:#A54514;" d="M2781.301,1099.838c0,0,302.948,323.634,212.569,799.56l-123.396-111.896L2781.301,1099.838z"/>
			</g>
			<g>
				<path style="fill:#A54514;" d="M3272.497,1938.329c0,0-10.651,70.348-40.871,75.797c-30.22,5.449-110.476-121.87-110.476-121.87
					c43.16,115.99,47.996,217.553,0,299.225l92.641-120.879l66.88,15.357C3265.289,2053.934,3276.213,1992.08,3272.497,1938.329z"/>
			</g>
			<g>
				<path style="fill:#A54514;" d="M3319.158,1547.897c0.417,0.336-86.046,59.004-193.053-18.279c0,0,17.091,64.889,66.137,88.921
					c49.045,24.032,122.23-5.407,122.23-5.407l24.162-50.817L3319.158,1547.897z"/>
			</g>
			<g>
				<path style="fill:#A54514;" d="M2969.533,1214.036c0,0,55.048,81.674,178.434,80.026c-6.443-14.237-13.088-29.273-19.981-45.158
					c-28.823-80.375-60.844-152.608-95.96-216.998L2969.533,1214.036z"/>
			</g>
			<g>
				<path style="fill:#FFAC43;" d="M2324.333,2329.198h-233.433c-489.644-31.97-769.933-298.072-636.408-552.885
					c0.499-6.994,1-13.937,1.598-20.88c50.703-648.696,279.49-964.802,751.5-826.231c474.059-139.17,702.696,180.182,752.25,834.423
					c0.3,4.196,0.6,8.442,0.899,12.688C3094.267,2031.125,2813.978,2297.228,2324.333,2329.198z"/>
			</g>
			<g>
				<path style="fill:#F4862C;" d="M2324.333,2329.198h-233.433c-489.644-31.97-769.933-298.072-636.408-552.885
					c0.499-6.994,1-13.937,1.598-20.88c6.344,2.148,9.891,3.697,9.891,3.697c-60.244,273.395,242.274,448.832,736.665,460.721
					c494.44-11.889,796.908-187.326,736.664-460.721l20.531,4.496c0.3,4.196,0.6,8.442,0.899,12.688
					C3094.267,2031.125,2813.978,2297.228,2324.333,2329.198z"/>
			</g>
			<g>
				<path style="fill:#FFFFFF;" d="M2060.563,2082.075c-296.712-84.849-270.867-350.982,11.806-392.682
					c41.985-58.118,135.224-57.946,135.224-57.946s92.539-0.172,135.274,57.946c282.668,41.699,308.517,307.823,11.854,392.677
					C2258.729,2109.527,2156.555,2109.525,2060.563,2082.075z"/>
			</g>
			<g>
				<path style="fill:#640000;" d="M2324.333,1847.196c-10.041,45.458-28.573,91.665-68.286,115.243
					c-30.022,17.833-66.838,17.833-96.86,0c-39.713-23.578-58.295-69.785-68.286-115.243c43.659,17.983,95.91-1.249,116.691-47.456
					C2228.373,1845.948,2280.624,1865.18,2324.333,1847.196z"/>
			</g>
			<g>
				<path style="fill:#F28080;" d="M2296.786,1916.407c-14.136-32.715-63.535-28.052-89.173-1.493
					c-25.637-26.56-75.036-31.222-89.173,1.493C2147.859,1989.94,2241.239,1992.018,2296.786,1916.407z"/>
			</g>
			<g>
				<g>
					<ellipse style="fill:#640000;" cx="1891.049" cy="1647.773" rx="129.301" ry="149.365"/>
				</g>
				<g>
					<ellipse style="fill:#FFFFFF;" cx="1948.64" cy="1603.186" rx="35.298" ry="40.871"/>
				</g>
				<g style="opacity:0.6;">
					<g>
						
							<ellipse transform="matrix(0.4526 -0.8917 0.8917 0.4526 -535.9995 2613.3928)" style="fill:#FFFFFF;" cx="1860.581" cy="1743.262" rx="32.325" ry="38.642"/>
					</g>
				</g>
			</g>
			<g>
				<path style="fill:#640000;" d="M1923.746,1133.541c-65.116,0-108.771,39.161-135.705,97.121
					c-2.062,4.436-1.305,9.678,1.787,13.468c3.703,4.539,10.023,6.089,15.329,3.609c35.789-16.727,74.842-25.703,118.589-23.538
					c26.471,0,47.93-20.295,47.93-45.33C1971.676,1153.835,1950.217,1133.541,1923.746,1133.541z"/>
			</g>
			<g>
				<g>
					<ellipse style="fill:#640000;" cx="2524.135" cy="1647.773" rx="129.301" ry="149.365"/>
				</g>
				<g>
					<ellipse style="fill:#FFFFFF;" cx="2466.544" cy="1603.186" rx="35.298" ry="40.871"/>
				</g>
				<g style="opacity:0.6;">
					<g>
						
							<ellipse transform="matrix(0.8917 -0.4526 0.4526 0.8917 -512.3677 1344.9526)" style="fill:#FFFFFF;" cx="2554.603" cy="1743.262" rx="38.642" ry="32.325"/>
					</g>
				</g>
			</g>
			<g>
				<path style="fill:#640000;" d="M2491.439,1133.541c65.116,0,108.771,39.161,135.705,97.121
					c2.062,4.436,1.305,9.678-1.787,13.468c-3.703,4.539-10.023,6.089-15.329,3.609c-35.789-16.727-74.843-25.703-118.589-23.538
					c-26.471,0-47.93-20.295-47.93-45.33C2443.508,1153.835,2464.967,1133.541,2491.439,1133.541z"/>
			</g>
			<g>
				<path style="fill:#640000;" d="M2207.592,1787.502c-80.225-6.344-98.808-85.47,0-85.47
					C2306.45,1702.032,2287.867,1781.158,2207.592,1787.502z"/>
			</g>
			<g>
				<path style="fill:#640000;" d="M2041.223,1785.074c15.49,30.254,43.434,54.278,77.557,55.236
					c31.906,1.394,62.492-17.752,75.263-46.904c5.001-11.38,22.427-11.08,27.193,0.199c12.658,29.229,43.288,48.453,75.232,47.188
					c34.353-0.827,62.658-24.97,78.244-55.436c3.115-6.042,12.591-2.298,10.64,4.29c-26.443,94.271-149.381,104.898-191.404,16.229
					c0,0.001,27.288,0.001,27.288,0.001c-4.529,9.757-10.447,18.889-17.546,27.057c-35.719,41.654-103.85,46.279-143.652,8.048
					c-15.156-14.242-25.398-32.33-30.854-51.052c-1.008-3.459,0.979-7.081,4.436-8.09
					C2036.651,1780.955,2039.82,1782.377,2041.223,1785.074L2041.223,1785.074z"/>
			</g>
			<g>
				<path style="fill:#640000;" d="M2207.613,1988.235c-18.955,0-37.915-5.02-54.824-15.063
					c-36.328-21.577-60.557-61.899-74.072-123.271l24.395-5.371c11.948,54.258,32.368,89.312,62.432,107.168
					c25.947,15.415,58.198,15.41,84.146,0c30.059-17.854,50.479-52.908,62.427-107.168l24.395,5.371
					c-13.516,61.375-37.744,101.697-74.067,123.271C2245.533,1983.215,2226.573,1988.235,2207.613,1988.235z"/>
			</g>
			<g>
				<path style="fill:#640000;" d="M2179.414,2014.977c20.277,4.213,39.075,2.948,59.478,0.245c2.81-0.374,4.466,3.422,2.341,5.237
					c-8.764,7.851-20.389,11.984-32.182,12.383c-11.96,0.358-24.421-3.662-32.688-12.135
					C2174.022,2018.46,2176.295,2014.293,2179.414,2014.977L2179.414,2014.977z"/>
			</g>
			<g>
				<ellipse style="fill:#FFFFFF;" cx="2207.611" cy="1722.084" rx="35.917" ry="12.137"/>
			</g>
			<g>
				<polygon style="fill:#640000;" points="2208.721,2108.738 2207.359,2108.635 2207.926,2103.674 2209.259,2103.772 				"/>
			</g>
			<g>
				<path style="fill:#640000;" d="M2206.51,2108.738l-0.537-4.966l1.387-0.098l0.566,4.961c-0.278,0.034-0.576,0.051-0.869,0.066
					L2206.51,2108.738z"/>
			</g>
			<g>
				<path style="fill:#640000;" d="M2323.904,2322.726c163.028-13.235,329.664-50.158,469.473-137.592
					c80.141-50.81,154.272-122.378,179.949-215.854c17.775-62.519,6.761-130.031-23.597-187.171
					c-30.536-348.491-115.814-901.615-574.962-869.025c-54.998,3.708-109.559,15.01-162.942,30.437c-2.857,0.841-5.76,0.781-8.42,0
					c-156.139-48.111-339.412-50.543-468.212,62.613c-200.515,173.945-247.055,519.108-268.856,771.178
					c-0.132,1.621-0.613,3.19-1.316,4.547c-20.702,39.798-33.38,84.09-32.136,128.817c0.992,76.065,40.618,145.677,93.125,199.127
					c148.576,145.221,363.72,196.413,565.265,213.681c3.205,0.19,5.625,3.016,5.35,6.209c-0.266,3.119-2.986,5.441-6.096,5.236
					c-41.582-2.773-83.171-6.36-124.446-12.676c-198.245-30.039-450.565-117.954-535.541-316.366
					c-8.266-19.594-13.945-41.35-17.552-62.266c-0.767-5.887-1.99-18.509-2.594-24.255c-0.309-4.814-0.113-19.293-0.33-24.406
					c1.841-43.418,14.204-85.944,33.86-124.155l-1.331,4.674c22.915-304.128,87.208-770.953,427.112-874.04
					c112.22-33.186,231.899-18.632,342.114,13.411c0,0-8.416,0-8.416,0c110.165-32.268,229.933-46.702,342.163-13.583
					c339.929,102.905,404.656,570.067,427.605,874.172c-0.002,0.001-1.391-4.886-1.391-4.886
					c19.695,38.267,32.095,80.873,33.948,124.385c0.059,5.538-0.316,19.099-0.327,24.46c-0.291,6.243-2.121,18.05-2.593,24.308
					c-0.983,7.795-3.566,16.143-4.807,23.933c-1.252,5.238-5.406,17.921-6.91,23.362
					c-74.317,200.427-316.425,292.162-510.912,326.934c-51.354,9.333-103.429,14.344-155.433,17.748
					C2316.125,2335.975,2315.467,2323.441,2323.904,2322.726L2323.904,2322.726z"/>
			</g>
			<g>
				<path style="fill:#640000;" d="M2207.613,2732.092c-3.555,0-7.109-1.257-9.946-3.774
					c-138.667-123.03-305.742-198.438-439.995-259.028c-95.142-42.942-173.081-78.12-220.689-119.392
					c-7.383,28.784-18.936,48.704-35.005,60.515c-14.043,10.322-30.952,13.982-50.259,10.869
					c-6.924-1.116-12.143-6.877-12.573-13.875c-4.248-69.041-52.803-109.5-109.019-156.35
					c-47.896-39.91-101.621-84.688-134.018-154.443c-49.302,42.222-92.988,31.624-95.02,31.104c-7.7-1.99-12.5-9.644-10.947-17.439
					c12.695-63.672,8.765-132.085,4.966-198.245c-5.703-99.294-11.118-193.547,39.111-263.24
					c-54.438-18.494-69.766-55.522-72.539-85.081c-0.503-5.352,1.9-10.562,6.299-13.655
					c83.32-58.643,123.662-118.867,205.352-306.67c82.446-229.695,194.766-401.206,333.848-509.785
					c125.815-98.223,277.222-147.927,450.356-147.927c2.432,0,4.863,0.01,7.3,0.029c-8.936-19.91-24.243-35.542-48.506-50.164
					c-5.449-3.286-8.232-9.651-6.938-15.881c1.294-6.231,6.377-10.964,12.686-11.809c83.823-11.23,144.8,10.3,185.537,65.759
					c40.732-55.454,101.694-76.98,185.537-65.759c6.309,0.845,11.392,5.579,12.686,11.809c1.294,6.23-1.489,12.595-6.938,15.881
					c-24.263,14.619-39.565,30.252-48.506,50.164c2.437-0.02,4.868-0.029,7.3-0.029c173.149,0,324.531,49.697,450.356,147.927
					c139.082,108.579,251.401,280.088,333.843,509.783c81.699,187.808,122.046,248.035,205.361,306.672
					c4.399,3.093,6.802,8.306,6.299,13.657c-2.778,29.556-18.105,66.584-72.544,85.078c50.229,69.692,44.814,163.945,39.111,263.24
					c-3.799,66.16-7.729,134.573,4.966,198.245c1.553,7.795-3.247,15.447-10.942,17.439c-2.046,0.52-45.703,11.118-95.024-31.104
					c-32.397,69.756-86.123,114.531-134.014,154.443c-56.221,46.848-104.771,87.31-109.019,156.35
					c-0.43,6.997-5.649,12.759-12.573,13.875c-19.316,3.101-36.221-0.547-50.264-10.872c-16.069-11.812-27.622-31.729-35.005-60.513
					c-47.607,41.272-125.547,76.45-220.688,119.392c-134.253,60.591-301.328,135.999-439.995,259.028
					C2214.722,2730.835,2211.168,2732.092,2207.613,2732.092z M1527.667,2304.556c4.302,0,8.481,1.858,11.372,5.227
					c39.16,45.62,128.042,85.737,230.967,132.188c132.935,59.998,297.627,134.336,437.607,255.222
					c139.98-120.886,304.673-195.225,437.607-255.222c102.925-46.45,191.807-86.567,230.967-132.188
					c3.828-4.463,9.917-6.279,15.557-4.629c5.645,1.643,9.81,6.433,10.649,12.251c5.044,34.998,14.937,58.809,28.604,68.857
					c4.771,3.506,10.215,5.493,16.47,5.989c9.937-73.789,62.729-117.791,118.447-164.219
					c52.051-43.376,105.874-88.23,133.843-162.698c1.831-4.875,6.06-8.45,11.172-9.443c5.127-0.981,10.371,0.74,13.892,4.575
					c27.456,29.893,52.798,37.295,67.847,38.665c-9.746-62.192-6.055-126.477-2.471-188.816
					c5.85-101.877,11.377-198.105-46.47-259.714c-3.716-3.962-5-9.629-3.35-14.807c1.646-5.178,5.972-9.058,11.299-10.139
					c52.954-10.747,66.875-35.662,70.869-56.428c-88.853-64.858-132.808-140.667-208.335-314.333
					c-0.127-0.303-0.249-0.608-0.361-0.918c-158.057-440.715-414.507-649.351-783.901-637.893c-4.614,0.149-9.131-1.89-12.075-5.505
					c-2.949-3.618-4.048-8.401-2.969-12.939c6.641-27.918,20.371-47.964,35.381-62.698c-59.712,0.483-101.426,24.39-129.673,73.623
					c-2.671,4.656-7.627,7.527-12.998,7.527s-10.327-2.871-12.998-7.527c-28.247-49.229-69.966-73.137-129.673-73.623
					c15.015,14.736,28.745,34.785,35.381,62.698c1.079,4.541-0.02,9.324-2.969,12.939c-2.949,3.616-7.427,5.684-12.075,5.505
					c-369.473-11.472-625.845,197.18-783.901,637.893c-0.112,0.31-0.234,0.615-0.361,0.918
					c-75.522,173.662-119.473,249.47-208.33,314.333c3.989,20.767,17.905,45.681,70.864,56.428
					c5.327,1.082,9.653,4.961,11.299,10.139c1.65,5.178,0.366,10.845-3.35,14.807c-57.847,61.609-52.319,157.837-46.47,259.714
					c3.584,62.346,7.275,126.633-2.476,188.833c14.995-1.367,40.361-8.75,67.847-38.682c3.521-3.833,8.775-5.554,13.896-4.575
					c5.112,0.994,9.341,4.568,11.172,9.443c27.969,74.468,81.792,119.321,133.848,162.698
					c55.713,46.431,108.511,90.43,118.442,164.219c6.26-0.496,11.699-2.483,16.465-5.989c13.672-10.049,23.564-33.86,28.608-68.857
					c0.84-5.818,5.005-10.608,10.649-12.251C1524.864,2304.751,1526.27,2304.556,1527.667,2304.556z"/>
			</g>
			<g>
				<path style="fill:#FFAC43;" d="M1823.4,800.121c-72.233,9.691-139.02,42.211-195.069,90.615c-0.449,0.3-0.899,0.7-1.299,1.049
					c-26.226,22.829-50.103,49.104-70.984,78.127c-20.63,28.623-38.364,59.894-52.751,93.163
					c-19.981,46.207-33.369,96.161-38.814,148.112c-295.225,37.715-358.167-309.312-172.04-513.522
					C1463.385,510.091,1761.757,529.024,1823.4,800.121z"/>
			</g>
			<g style="opacity:0.6;">
				<g>
					<path style="fill:#FFFFFF;" d="M1815.657,771.348c-105.451-189.624-362.762-183.08-518.567-12.139
						c-63.84,70.085-99.658,156.254-107.899,238.977c-10.74-98.658,23.278-212.752,103.254-300.52
						C1457.141,516.935,1740.078,527.925,1815.657,771.348z"/>
				</g>
			</g>
			<g>
				<path style="fill:#F7E3D0;" d="M1628.381,897.081c-0.399-1.798-0.849-3.596-1.349-5.295
					c-18.183-62.941-104.802-67.337-87.119,42.111l16.135,36.017c-9.941,13.787-19.232,28.224-27.774,43.21
					c-9.191,16.035-17.534,32.72-24.977,49.953l-50.703,24.627c-121.487,6.894-150.01-75.879-136.423-158.253
					c7.943-48.105,30.272-96.01,56.798-125.883c99.257-111.596,252.515-127.731,255.362,87.169
					C1628.381,892.835,1628.381,894.933,1628.381,897.081z"/>
			</g>
			<g>
				<path style="fill:#EDB196;" d="M1628.381,897.081c-0.399-1.798-0.849-3.596-1.349-5.295
					c-18.183-62.941-104.802-67.337-87.119,42.111l16.135,36.017c-9.941,13.787-19.232,28.224-27.774,43.21
					c-45.158-255.412-172.09-130.778-212.103-83.672c7.943-48.105,30.272-96.01,56.798-125.883
					c99.257-111.596,252.515-127.731,255.362,87.169C1628.381,892.835,1628.381,894.933,1628.381,897.081z"/>
			</g>
			<g>
				<path style="fill:#640000;" d="M1917.244,812.669c-74.128,1.125-148.297,7.628-219.688,28.134c0,0,1.47-27.813,1.47-27.813
					c22.191,9.316,44.197,19.072,66.135,28.977c6.584,2.993,9.495,10.757,6.501,17.34c-3.579,7.433-11.834,8.079-18.415,12.614
					c-12.052,6.958-23.637,14.83-34.336,23.804c-14.626,11.939-27.39,25.717-38.611,40.976c-1.85,2.714-5.634,3.374-8.255,1.363
					c-2.188-1.66-2.849-4.585-1.748-6.981c4.238-9.212,8.975-18.37,14.873-26.747c17.741-25.721,41.08-46.924,68.332-62.431
					c0,0,0.686,24.264,0.686,24.264c-22.245-8.391-44.436-16.917-66.45-25.885c-12.74-4.735-11.902-23.947,0.987-27.664
					c37.194-11.514,75.91-18.059,114.711-20.313c38.461-1.936,77.162,0.087,114.922,7.424
					C1925.846,801.287,1924.976,812.428,1917.244,812.669L1917.244,812.669z"/>
			</g>
			<g>
				<path style="fill:#640000;" d="M1808.765,803.453c-24.815-112.673-106.436-201.223-223.983-211.705
					c-170.417-16.471-328.094,119.384-369.444,280.222c-28.562,104.11-9.729,235.547,87.861,296.163
					c47.723,29.387,104.471,35.204,160.241,34.741c4.709-0.087,8.586,3.723,8.586,8.432c0.002,3.979-2.754,7.317-6.46,8.21
					c-29.185,7.041-60.027,9.174-90.642,5.161c-30.593-3.95-60.764-14.414-87.551-30.763
					c-166.515-106.652-135.627-356.903-21.123-491.332c94.656-117.728,267.541-185.412,411.194-119.414
					c85.818,38.171,142.004,123.732,160.545,213.643C1841.7,816.258,1813.719,822.486,1808.765,803.453L1808.765,803.453z"/>
			</g>
			<g>
				<path style="fill:#640000;" d="M1533.521,934.929c-5.85-23.454-8.736-50.838,3.052-74.086
					c8.251-18.116,31.229-30.148,51.133-25.603c28.905,5.084,49.356,31.996,55.053,58.712c0,0-29.128,3.099-29.128,3.099
					c-0.898-56.103-8.793-131.999-67.55-154.681c-68.502-21.824-153.552,46.356-186.464,103.375
					c-43.656,73.218-63.844,208.962,45.155,231.882c15.326,3.45,31.388,4.664,47.518,4.362c3.185-0.09,5.836,2.444,5.894,5.627
					c0.056,3.033-2.268,5.562-5.244,5.825c-52.215,5.815-110.649-9.07-135.712-59.955c-36.55-74.922-3.85-184.293,49.561-243.62
					c46.154-50.208,117.401-97.902,188.942-75.51c73.278,25.796,87.616,115.757,87.358,182.8
					c-0.251,17.717-25.389,20.109-29.126,3.008c-7.451-40.48-53.896-59.527-65.046-10.335c-3.156,13.343-3.472,28.227-2.573,43.113
					C1546.746,940.766,1535.463,942.469,1533.521,934.929L1533.521,934.929z"/>
			</g>
			<g>
				<path style="fill:#FFAC43;" d="M2591.827,800.121c72.233,9.691,139.021,42.211,195.069,90.615c0.449,0.3,0.899,0.7,1.299,1.049
					c26.226,22.829,50.103,49.104,70.984,78.127c20.63,28.623,38.364,59.894,52.75,93.163
					c19.981,46.207,33.369,96.161,38.814,148.112c295.225,37.715,358.167-309.312,172.04-513.522
					C2951.842,510.091,2653.47,529.024,2591.827,800.121z"/>
			</g>
			<g>
				<path style="fill:#F7E3D0;" d="M2786.846,897.081c0.399-1.798,0.849-3.596,1.349-5.295
					c18.182-62.941,104.802-67.337,87.119,42.111l-16.135,36.017c20.63,28.623,38.364,59.894,52.75,93.163l50.703,24.627
					c192.471,10.89,151.609-203.211,79.626-284.135c-99.257-111.596-252.515-127.731-255.362,87.169
					C2786.846,892.835,2786.846,894.933,2786.846,897.081z"/>
			</g>
			<g style="opacity:0.6;">
				<g>
					<path style="fill:#FFFFFF;" d="M2599.571,771.348c105.451-189.624,362.762-183.08,518.567-12.139
						c63.84,70.085,99.657,156.254,107.899,238.977c10.74-98.658-23.278-212.752-103.253-300.52
						C2958.086,516.935,2675.15,527.925,2599.571,771.348z"/>
				</g>
			</g>
			<g>
				<path style="fill:#EDB196;" d="M2786.846,897.081c0.399-1.798,0.849-3.596,1.349-5.295
					c18.182-62.941,104.802-67.337,87.119,42.111l-16.135,36.017c9.941,13.787,19.232,28.224,27.774,43.21
					c45.158-255.412,172.09-130.778,212.103-83.672c-7.943-48.105-30.272-96.01-56.798-125.883
					c-99.257-111.596-252.515-127.731-255.362,87.169C2786.846,892.835,2786.846,894.933,2786.846,897.081z"/>
			</g>
			<g>
				<path style="fill:#640000;" d="M2496.868,799.733c75.809-14.307,155.308-9.707,229.153,12.738
					c13.467,3.648,14.328,22.873,1.467,27.814c-22.01,8.968-44.208,17.495-66.45,25.885l0.686-24.264
					c18.51,10.416,34.472,23.281,48.992,38.508c14.156,14.785,25.94,31.992,34.214,50.669c1.326,2.886,0.063,6.3-2.822,7.627
					c-2.495,1.147-5.386,0.358-6.98-1.743c-19.373-26.697-44.594-48.703-73.147-65.046c-3.909-2.207-8.281-4.506-11.79-6.058
					c-6.616-2.924-9.607-10.657-6.682-17.271c1.484-3.375,4.175-5.701,7.368-6.993c10.825-4.922,21.719-9.674,32.573-14.519
					c10.83-4.907,21.833-9.396,32.751-14.089l1.47,27.813c-35.452-9.938-71.598-17.089-108.223-21.307
					c-36.955-4.578-74.094-5.97-111.465-6.826C2490.375,812.491,2489.283,801.251,2496.868,799.733L2496.868,799.733z"/>
			</g>
			<g>
				<path style="fill:#640000;" d="M2577.236,796.81c65.05-294.961,399.883-305.595,571.74-94.227
					c95.402,115.559,133.293,296.113,46.484,426.984c-34.903,51.714-93.379,87.607-155.158,95.11
					c-30.615,4.013-61.457,1.88-90.642-5.161c-4.531-1.094-7.317-5.652-6.223-10.182c0.933-3.868,4.392-6.465,8.203-6.461
					c28.781,0.032,56.992-0.976,84.175-6.307c85.837-14.68,146.813-75.263,167.292-159.239
					c26.989-108.679-9.091-228.299-79.787-313.616c-102.082-129.437-310.982-189.545-439.481-65.045
					c-39.497,38.316-64.572,90.228-77.389,144.844C2601.49,822.519,2573.461,816.175,2577.236,796.81L2577.236,796.81z"/>
			</g>
			<g>
				<path style="fill:#640000;" d="M2868.889,932.854c0.756-23.937,1.891-59.007-21.71-70.925
					c-21.753-8.115-42.633,17.1-45.914,38.237c-1.634,7.961-9.412,13.09-17.374,11.455c-7.008-1.439-11.84-7.656-11.753-14.553
					c-1.687-90.033,30.72-202.19,143.148-187.027c52.91,8.364,98.17,41.786,133.151,79.828
					c23.749,25.727,39.926,57.432,50.955,90.26c15.851,48.669,22.292,105.522-1.391,153.361
					c-25.086,50.87-83.468,65.782-135.712,59.952c-3.159-0.271-5.498-3.05-5.227-6.207c0.261-3.045,2.863-5.334,5.874-5.244
					c16.13,0.302,32.195-0.912,47.52-4.362c109.001-22.952,88.819-158.634,45.153-231.881
					c-29.929-50.535-86.396-96.921-144.564-106.673c-89.342-13.303-110.399,88.335-109.448,157.979
					c-0.001-0.001-29.129-3.1-29.129-3.1c5.696-26.716,26.148-53.629,55.054-58.713c19.922-4.532,42.865,7.477,51.132,25.605
					c11.786,23.245,8.904,50.632,3.052,74.085C2879.748,942.549,2868.326,940.674,2868.889,932.854L2868.889,932.854z"/>
			</g>
			<g style="opacity:0.6;">
				<g>
					<path style="fill:#FFFFFF;" d="M1532.127,2863.151c-113.545-38.044-219.994,110.082-165.143,305.768
						C1374.999,3030.654,1389.346,2897.282,1532.127,2863.151z"/>
				</g>
			</g>
			<g style="opacity:0.6;">
				<g>
					<path style="fill:#FFFFFF;" d="M2883.101,2863.151c113.545-38.044,219.994,110.082,165.143,305.768
						C3040.229,3030.654,3025.881,2897.282,2883.101,2863.151z"/>
				</g>
			</g>
			<g style="opacity:0.6;">
				<g>
					<path style="fill:#FFFFFF;" d="M1241.571,3365.595c0,0,8.917-136.494,173.393-126.457
						C1327.773,3255.953,1273.036,3300.744,1241.571,3365.595z"/>
				</g>
			</g>
			<g style="opacity:0.6;">
				<g>
					<path style="fill:#FFFFFF;" d="M1618.39,3355.191c0,0,62.668-122.365,197.915-92.627
						C1747.939,3288.311,1670.303,3302.103,1618.39,3355.191z"/>
				</g>
			</g>
			<g style="opacity:0.6;">
				<g>
					<path style="fill:#FFFFFF;" d="M2883.101,2863.151c113.545-38.044,219.994,110.082,165.143,305.768
						C3040.229,3030.654,3025.881,2897.282,2883.101,2863.151z"/>
				</g>
			</g>
			<g style="opacity:0.6;">
				<g>
					<path style="fill:#FFFFFF;" d="M3173.656,3365.595c0,0-8.917-136.494-173.393-126.457
						C3087.454,3255.953,3142.191,3300.744,3173.656,3365.595z"/>
				</g>
			</g>
			<g style="opacity:0.6;">
				<g>
					<path style="fill:#FFFFFF;" d="M2796.837,3355.191c0,0-62.668-122.365-197.915-92.627
						C2667.289,3288.311,2744.924,3302.103,2796.837,3355.191z"/>
				</g>
			</g>
		</g>
		<g>
			<path style="fill:#640000;" d="M2660.01,3510.369c-21.87,0-44.79-2.349-66.992-9.944c-3.818,0.657-7.432,1.213-10.952,1.689
				c-2.925,0.757-5.82,1.094-8.511,0.991c-31.479,3.403-64.629,2.375-98.579-3.027c-26.25,5.808-53.042,4.402-75.757-4.006
				c-17.417-7.236-32.324-18.225-44.722-32.844c-53.413,6.406-102.749,9.153-146.89,8.135c-44.097,1.013-93.472-1.743-146.865-8.14
				c-12.397,14.624-27.266,25.598-44.282,32.668c-0.156,0.066-0.313,0.127-0.474,0.186c-22.759,8.394-49.565,9.8-75.737,4.001
				c-33.955,5.403-67.124,6.423-98.623,3.025c-2.661,0.085-5.454-0.237-8.32-0.972c-3.599-0.483-7.261-1.047-11.094-1.707
				c-34.941,11.963-71.699,10.908-103.325,8.167c-2.139-0.017-4.004-0.144-5.967-0.508c-0.083-0.015-0.22-0.044-0.366-0.076
				c-6.089-0.579-12.144-1.211-18.145-1.858c-25.752-0.845-49.907-7.693-70.142-19.851c-18.672,0.239-39.678-0.376-62.71-1.863
				c-33.398,15.022-79.956,12.683-128.872,8.416c-33.159,8.257-71.88,8.108-125.049-0.452
				c-66.86-4.402-111.318-52.561-113.325-122.861c-1.919-67.085,38.906-144.29,120.625-168.557
				c-39.482-149.504-8.237-244.192,21.382-294.685c-25.02-3.726-49.136-9.451-71.934-17.083
				c-48.306-16.13-92.729-40.999-135.547-75.906c-64.39,34.656-136.934,52.932-210.371,52.935
				c-54.981,0-108.408-10.037-158.809-29.829c-50.537-13.662-75.337-53.923-70.112-85.142c1.831-10.967,7.109-20.781,15.044-28.411
				c-50.391-50.02-74.614-117.959-70.195-197.522c3.076-55.454,18.848-101.638,27.148-122.542
				c-3.921-12.539-6.523-24.521-7.754-35.679c-5.913-54.041,21.147-71.204,33.061-76.077c24.815-10.173,53.335,1.123,76.245,30.183
				c12.925,16.392,20.142,37.227,20.874,60.254c0.317,10.583,1.987,18.928,4.312,25.41c0.078-2.764,0.415-5.522,1.016-8.254
				c3.008-13.687,17.104-44.944,82.5-42.966c114.561-53.616,225.381-35.63,296.909,48.369l0.728,0.896
				c68.584,80.881,82.168,202.483,34.722,305.247c28.545,20.444,64.751,26.804,118.525,21.226c21.265-2.2,43.682-6.04,65.361-9.756
				c76.514-13.101,155.439-26.619,219.873,19.487c30.908-105.891,76.006-187.019,137.524-247.534
				c2.695-4.148,5.469-8.281,8.306-12.373l-1.216-0.549c-88.364-39.883-159.927-72.183-209.033-109.441
				c-8.081,22.173-19.331,38.376-34.116,49.243c-16.855,12.393-36.943,16.809-59.653,13.137
				c-12.783-2.058-22.266-12.524-23.057-25.447c-3.916-63.65-48.315-100.652-104.526-147.5
				c-45.439-37.861-96.518-80.422-130.43-144.778c-49.243,34.912-91.846,24.421-93.774,23.918
				c-14.082-3.645-22.9-17.693-20.059-31.978c12.383-62.1,8.501-129.69,4.751-195.056c-5.503-95.803-10.713-186.582,32.651-258.02
				c-49.273-22.297-63.286-60.493-66.05-89.875c-0.918-9.795,3.506-19.395,11.557-25.051
				c80.986-57.002,120.449-116.113,200.908-301.05c4.409-12.283,9.102-24.888,13.994-37.595
				c-62.183-41.851-101.143-105.889-113.032-185.732c-16.211-108.867,20.718-234.861,94.072-320.979
				c49.219-61.226,117.813-108.345,192.925-132.405c81.631-26.148,162.207-22.786,233.003,9.736
				c29.658,13.191,56.86,32.202,80.854,56.531c85.093-34.888,178.892-53.379,279.141-55.042
				c-7.856-9.719-18.501-18.447-32.778-27.053c-9.98-6.013-15.093-17.72-12.72-29.128c2.368-11.406,11.714-20.107,23.262-21.655
				c82.422-11.03,143.838,7.979,187.192,58.103c43.359-50.112,104.78-69.129,187.197-58.103
				c11.548,1.548,20.894,10.249,23.267,21.658c2.368,11.406-2.744,23.113-12.729,29.126c-14.282,8.608-24.922,17.339-32.783,27.065
				c100.273,1.699,193.936,20.137,278.872,54.91c56.426-56.458,134.004-85.75,219.414-82.722
				c107.383,3.835,214.98,59.612,287.822,149.199c93.726,113.523,140.078,301.772,47.202,441.777
				c-17.085,25.317-39.878,47.48-66.372,64.641c4.897,12.737,9.6,25.364,14.019,37.659
				c80.464,184.939,119.932,244.058,200.923,301.062c8.047,5.654,12.471,15.254,11.553,25.049l0,0
				c-2.764,29.385-16.777,67.583-66.055,89.878c43.369,71.433,38.154,162.207,32.656,257.974
				c-3.755,65.408-7.637,132.998,4.751,195.093c2.842,14.292-5.977,28.34-20.078,31.99c-4.863,1.245-45.679,10.325-93.77-23.909
				c-33.906,64.343-84.98,106.902-130.396,144.749c-56.221,46.848-100.63,83.853-104.546,147.515
				c-0.791,12.922-10.273,23.389-23.062,25.449c-22.749,3.657-42.832-0.764-59.658-13.145
				c-14.785-10.864-26.03-27.068-34.111-49.238c-49.106,37.261-120.669,69.561-209.033,109.443l-1.23,0.554
				c2.876,4.136,5.664,8.276,8.35,12.393c77.227,75.984,129.175,185.437,158.516,334.185
				c62.554-32.183,131.694-28.838,188.018,9.927c74.175,51.045,134.146,172.937,83.94,363.24
				c81.719,24.268,122.544,101.472,120.625,168.557c-2.007,70.3-46.465,118.459-113.325,122.861
				c-53.613,8.623-91.67,8.75-125.044,0.449c-48.916,4.265-95.479,6.609-128.877-8.413c-23.008,1.489-44.067,2.109-62.671,1.86
				c-20.205,12.136-44.37,18.982-70.176,19.851c-6.001,0.649-12.07,1.282-18.164,1.86l-0.22,0.051
				c-2.09,0.381-3.931,0.537-6.069,0.532C2684.825,3509.592,2672.594,3510.369,2660.01,3510.369z M2594.083,3475.042
				c1.46,0,2.92,0.256,4.302,0.764c31.572,11.575,66.484,10.449,96.475,7.822c0.508-0.044,0.996-0.061,1.523-0.042
				c0.503,0.012,0.967-0.01,1.411-0.093l0.381-0.098c0.449-0.093,0.903-0.161,1.357-0.203c6.401-0.603,12.773-1.27,19.067-1.951
				c0.322-0.034,0.64-0.059,0.962-0.068c22.881-0.703,44.043-6.912,61.201-17.949c2.085-1.343,4.443-2.065,7.012-1.985
				c19.678,0.388,42.358-0.266,67.451-1.96c2.246-0.151,4.419,0.291,6.396,1.272c28.247,14.004,73.286,11.396,120.854,7.209
				c1.421-0.127,2.866-0.007,4.263,0.359c30.439,7.964,66.157,7.808,117.456-0.496c0.405-0.066,0.815-0.112,1.23-0.137
				c54.18-3.337,88.857-41.143,90.498-98.662c1.719-60.193-36.787-129.91-113.711-146.694c-3.369-0.735-6.289-2.832-8.062-5.791
				c-1.768-2.961-2.241-6.523-1.294-9.841c52.549-184.675-2.056-300.938-70.679-348.162c-52.622-36.213-118.511-36.375-176.27-0.422
				c-3.516,2.188-7.881,2.493-11.67,0.815c-3.784-1.677-6.494-5.117-7.236-9.189c-27.832-152.949-78.75-263.84-155.659-339.009
				c-0.664-0.649-1.255-1.37-1.758-2.148c-5.327-8.232-11.123-16.582-17.217-24.814c-2.251-3.037-3.003-6.929-2.051-10.586
				c0.947-3.657,3.506-6.689,6.948-8.245l15.151-6.843c95.767-43.225,171.411-77.368,217.637-117.444
				c3.281-2.839,7.798-3.779,11.914-2.485c4.136,1.292,7.305,4.631,8.384,8.826c6.65,25.935,16.563,43.45,30.298,53.545
				c11.396,8.386,24.78,11.201,40.874,8.604c1.152-0.186,2.012-1.13,2.085-2.3c4.58-74.431,57.48-118.513,113.491-165.186
				c46.621-38.85,99.458-82.883,130.679-150.107c1.65-3.547,4.863-6.118,8.682-6.948c3.848-0.84,7.822,0.176,10.786,2.72
				c44.316,37.942,82.173,28.899,83.779,28.494c1.265-0.327,2.061-1.602,1.802-2.896c-13.008-65.225-9.033-134.438-5.19-201.375
				c5.586-97.292,10.864-189.15-36.772-255.239c-2.314-3.215-2.974-7.341-1.763-11.116c1.206-3.774,4.131-6.755,7.886-8.03
				c39.155-13.301,60.728-38.337,64.116-74.412l12.446,1.169l-12.446-1.169c0.083-0.884-0.317-1.75-1.04-2.263
				c-85.669-60.291-126.807-121.506-209.629-311.909c-0.112-0.249-0.21-0.503-0.303-0.762
				c-5.503-15.322-11.455-31.177-17.686-47.122c-2.241-5.723,0.015-12.224,5.317-15.334c27.173-15.935,50.459-37.576,67.334-62.583
				c86.089-129.783,42.158-305.537-45.762-412.031c-68.418-84.148-169.097-136.477-269.38-140.061
				c-81.211-2.866-154.512,25.906-206.357,81.108c-3.574,3.821-9.16,4.997-13.994,2.952
				c-90.073-38.203-190.791-57.168-299.121-56.335c-4.321-0.022-8.232-2.107-10.562-5.669c-2.324-3.564-2.676-8.069-0.933-11.951
				c9.883-22.012,26.87-39.727,53.452-55.752c0.908-0.544,1.367-1.602,1.157-2.629c-0.215-1.035-1.064-1.824-2.109-1.963
				c-79.131-10.596-135.991,9.282-173.804,60.769c-2.354,3.206-6.094,5.1-10.073,5.1l0,0c-3.979,0-7.72-1.895-10.073-5.1
				c-37.813-51.489-94.644-71.375-173.799-60.769c-1.045,0.139-1.894,0.928-2.104,1.961c-0.215,1.03,0.244,2.087,1.148,2.632
				c26.592,16.025,43.574,33.743,53.457,55.752c1.743,3.884,1.387,8.389-0.942,11.953c-2.305,3.538-6.245,5.667-10.464,5.667
				c-0.034,0-0.068,0-0.098,0c-2.407-0.02-4.805-0.029-7.197-0.029c-105.649,0-203.97,19.011-292.231,56.504
				c-4.849,2.061-10.464,0.857-14.043-2.993c-23.135-24.89-49.678-44.099-78.901-57.097
				c-143.882-66.104-311.572,10.356-396.372,115.825c-69.106,81.138-103.794,199.321-88.603,301.36
				c11.118,74.673,48.022,134.016,106.728,171.611c0.386,0.234,1.001,0.576,1.616,0.92l1.655,0.945
				c5.322,3.101,7.593,9.617,5.347,15.352c-6.216,15.894-12.153,31.709-17.637,47.007c-0.093,0.256-0.195,0.513-0.303,0.764
				c-82.822,190.403-123.96,251.619-209.624,311.907c-0.728,0.515-1.128,1.382-1.045,2.266
				c3.389,36.072,24.961,61.108,64.116,74.412c3.75,1.277,6.675,4.255,7.881,8.03c1.211,3.777,0.552,7.9-1.763,11.116
				c-47.637,66.091-42.358,157.952-36.772,255.205c3.843,66.973,7.817,136.187-5.186,201.414c-0.259,1.292,0.542,2.563,1.816,2.893
				c1.602,0.4,39.448,9.456,83.76-28.496c2.969-2.544,6.968-3.557,10.781-2.72c3.823,0.83,7.036,3.401,8.687,6.948
				c31.221,67.231,84.063,111.26,130.684,150.107c56.021,46.685,108.911,90.769,113.491,165.183
				c0.073,1.172,0.933,2.117,2.085,2.302c15.859,2.556,29.614-0.33,40.869-8.599c13.735-10.098,23.647-27.615,30.298-53.55
				c1.079-4.194,4.248-7.534,8.384-8.826c4.121-1.294,8.638-0.354,11.914,2.485c46.225,40.073,121.875,74.216,217.642,117.441
				l15.107,6.826c3.443,1.555,5.996,4.583,6.948,8.237s0.205,7.544-2.041,10.583c-5.952,8.057-11.724,16.401-17.144,24.8
				c-0.508,0.784-1.099,1.509-1.768,2.161c-62.266,60.847-107.085,144.426-137.017,255.513c-1.133,4.202-4.37,7.512-8.545,8.74
				c-4.189,1.228-8.687,0.195-11.914-2.725c-57.983-52.493-137.383-38.887-214.18-25.737c-22.08,3.784-44.912,7.695-67.002,9.983
				c-65.205,6.763-109.873-3.389-144.805-32.896c-4.419-3.73-5.698-10.005-3.096-15.171
				c48.232-95.798,37.266-211.331-27.305-287.485l9.131-8.577l-9.517,8.103c-64.307-75.52-165.205-90.725-269.897-40.698
				c-1.851,0.886-3.853,1.289-5.957,1.211c-34.131-1.577-56.567,7.146-60.102,23.252c-1.802,8.174,1.753,16.997,9.751,24.214
				c3.184,2.874,4.673,7.178,3.945,11.404c-0.732,4.226-3.574,7.783-7.539,9.426c-7.197,2.983-15.01,3.413-22.617,1.243
				c-17.666-5.042-37.002-25.569-38.272-68.052c-0.557-17.622-5.923-33.379-15.513-45.544c-15.615-19.8-33.262-28.223-47.148-22.524
				c-6.67,2.729-21.743,13.081-17.676,50.212c1.177,10.703,3.882,22.458,8.047,34.934c0.957,2.859,0.845,5.967-0.313,8.75
				c-7.09,17.083-23.926,62.837-27.021,118.65c-4.302,77.439,21.016,142.461,73.213,188.04c3.154,2.756,4.722,6.909,4.17,11.062
				s-3.149,7.751-6.914,9.59c-11.636,5.676-14.78,14.954-15.62,19.978c-3.33,19.88,15.82,47.341,52.563,57.041
				c0.474,0.125,0.938,0.278,1.396,0.459c47.661,18.809,98.232,28.347,150.303,28.347c72.036-0.002,143.149-18.633,205.659-53.879
				c4.536-2.563,10.195-2.031,14.194,1.331c42.397,35.735,86.23,60.862,133.994,76.812c27.085,9.067,56.206,15.276,86.567,18.457
				c4.419,0.464,8.262,3.237,10.088,7.288c1.831,4.05,1.372,8.767-1.206,12.388c-29.761,41.853-72.632,136.851-25.391,302.861
				c0.947,3.318,0.479,6.88-1.294,9.841c-1.773,2.959-4.693,5.056-8.062,5.791c-76.929,16.785-115.435,86.501-113.716,146.694
				c1.641,57.52,36.318,95.325,90.498,98.662c0.415,0.024,0.825,0.071,1.23,0.137c51.016,8.252,87.241,8.408,117.461,0.496
				c1.392-0.366,2.827-0.483,4.263-0.359c47.568,4.187,92.602,6.797,120.849-7.209c1.978-0.979,4.185-1.421,6.392-1.272
				c25.142,1.697,47.866,2.351,67.49,1.96c2.544-0.083,4.927,0.642,7.017,1.987c17.192,11.062,38.335,17.268,61.147,17.949
				c0.327,0.01,0.649,0.032,0.972,0.068c6.294,0.679,12.661,1.345,19.058,1.948c0.396,0.037,0.791,0.093,1.177,0.166
				c0.2,0.039,0.737,0.159,0.933,0.205c0.103,0.01,0.537,0.034,1.055,0.022c0.503-0.017,1.025-0.005,1.538,0.042
				c30,2.617,64.917,3.752,96.455-7.822c2.085-0.767,4.341-0.969,6.543-0.562c4.951,0.898,9.536,1.624,14.014,2.212
				c0.615,0.081,1.221,0.205,1.816,0.376c1.128,0.325,1.597,0.283,1.611,0.283c0.776-0.059,1.738-0.061,2.515,0.024
				c30.278,3.367,62.358,2.314,95.293-3.125c1.636-0.269,3.32-0.212,4.946,0.176c22.109,5.293,44.663,4.409,63.53-2.485
				c15.122-6.331,27.646-16.24,38.281-30.286c2.695-3.555,7.051-5.42,11.514-4.854c54.956,6.868,105.571,9.832,150.425,8.796
				c0.2-0.007,0.381-0.007,0.581,0c44.819,1.047,95.439-1.914,150.43-8.792c4.448-0.571,8.818,1.299,11.519,4.854
				c10.688,14.114,23.286,24.05,38.506,30.383c18.389,6.794,41.035,7.705,63.296,2.383c1.611-0.388,3.286-0.444,4.941-0.176
				c32.939,5.442,64.985,6.494,95.264,3.127c0.845-0.095,1.699-0.103,2.544-0.022c0.005-0.007,0.542,0.042,1.685-0.288
				c0.61-0.178,1.23-0.308,1.86-0.391c4.38-0.576,8.926-1.294,13.896-2.2C2592.589,3475.107,2593.336,3475.042,2594.083,3475.042z"
				/>
		</g>
	</g>
</g>
</svg>
